<svg width="103" height="84" viewBox="0 0 103 84" fill="none" xmlns="http://www.w3.org/2000/svg">
<mask id="mask0_407_580" style="mask-type:luminance" maskUnits="userSpaceOnUse" x="34" y="57" width="14" height="13">
<path d="M34.1914 69.9379H40.1076V64.0217H34.1914V69.9379ZM41.1017 69.9379H47.0179V64.0217H41.1017V69.9379ZM34.1914 63.2316H40.1076V57.3154H34.1914V63.2316ZM41.1017 63.2316H47.0179V57.3154H41.1017V63.2316Z" fill="white"/>
</mask>
<g mask="url(#mask0_407_580)">
<path d="M28.8037 60.3404L43.9447 51.8407L52.4054 66.9131L37.2644 75.4128L28.8037 60.3404Z" fill="url(#paint0_linear_407_580)"/>
</g>
<path d="M102.33 83.7029H90.8887L79.1862 63.3375L79.1268 63.2318C74.3642 54.9788 69.609 46.722 64.8445 38.4653C64.366 37.6363 63.8356 36.8277 63.3051 35.9876L58.409 43.419L57.4872 44.8174L51.9327 35.2012L53.5889 32.2524L53.6538 32.1356C54.7851 30.1715 56.1927 27.6826 56.9976 26.0877C57.2721 25.5498 56.699 24.4389 56.2873 23.7175C53.7947 19.3276 51.2984 14.9396 48.7354 10.598L54.4216 0.709229C70.3879 28.3651 86.2114 55.7762 102.33 83.7029Z" fill="#414E5E"/>
<mask id="mask1_407_580" style="mask-type:luminance" maskUnits="userSpaceOnUse" x="0" y="15" width="79" height="69">
<path d="M0 83.8996C8.11391 83.8996 15.8866 83.9126 23.5628 83.8885V73.9515C21.5283 73.9626 19.4122 73.9292 17.118 73.9292C24.6644 60.8802 31.9141 48.3338 39.3492 35.474C46.8715 48.5211 54.1026 61.0509 61.534 73.9459C59.3845 73.9459 57.4316 73.9237 55.5603 73.9348V83.703H78.4555L60.2618 52.1061L56.9327 46.3253L39.3232 15.7428C26.111 38.6453 13.1751 61.062 0 83.8996Z" fill="white"/>
</mask>
<g mask="url(#mask1_407_580)">
<path d="M-34.0786 50.4648L38.4959 -23.4784L112.536 49.1907L39.961 123.134L-34.0786 50.4648Z" fill="url(#paint1_linear_407_580)"/>
</g>
<defs>
<linearGradient id="paint0_linear_407_580" x1="35.7077" y1="66.3252" x2="46.8924" y2="60.0461" gradientUnits="userSpaceOnUse">
<stop stop-color="#7DC910"/>
<stop offset="1" stop-color="#B6E432"/>
</linearGradient>
<linearGradient id="paint1_linear_407_580" x1="10.409" y1="79.1688" x2="63.7781" y2="24.7928" gradientUnits="userSpaceOnUse">
<stop stop-color="#7DC910"/>
<stop offset="1" stop-color="#B6E432"/>
</linearGradient>
</defs>
</svg>
