<svg width="20" height="16" viewBox="0 0 20 16" fill="none" xmlns="http://www.w3.org/2000/svg">
<path d="M8.37507 6.39002L7.52869 1.22831C7.48187 0.940636 7.58688 0.650571 7.82064 0.421843C8.05441 0.193116 8.39781 0.0444359 8.7754 0.00847103L8.86436 0.00188244L9.07194 0C9.43227 6.14582e-05 9.78475 0.0801328 10.0863 0.230416C10.3878 0.3807 10.6253 0.594678 10.7696 0.846167L13.8734 6.25072L17.2738 6.16601C17.8816 6.15021 18.4748 6.31002 18.9345 6.6134C19.3942 6.91678 19.6863 7.3413 19.7523 7.80187L19.7647 7.93835V7.99953C19.7647 9.01324 18.686 9.83493 17.343 9.83493L13.8747 9.74834L10.7696 15.1538C10.6253 15.4053 10.3878 15.6193 10.0863 15.7696C9.78475 15.9199 9.43227 15.9999 9.07194 16H8.95332C8.74976 16 8.54853 15.967 8.36297 15.9032C8.17742 15.8395 8.01178 15.7464 7.87706 15.6301C7.74234 15.5139 7.6416 15.3772 7.58154 15.229C7.52148 15.0808 7.50347 14.9246 7.52869 14.7708L8.37507 9.60809L5.72844 9.54127L4.54475 11.1188C4.39767 11.3149 4.18511 11.478 3.92862 11.5914C3.67214 11.7048 3.38084 11.7645 3.08429 11.7645C2.75659 11.7645 2.44231 11.6653 2.2106 11.4888C1.97888 11.3123 1.8487 11.0729 1.8487 10.8232V9.44338L1.64977 9.43114C1.19361 9.38573 0.774704 9.21549 0.471158 8.95216C0.167613 8.68883 0.000151332 8.35038 1.02517e-07 7.99994C-0.000151127 7.6495 0.167018 7.31097 0.470336 7.04749C0.773655 6.78401 1.19242 6.61356 1.64854 6.56792L1.8487 6.55568V5.17583C1.8487 4.9262 1.97888 4.6868 2.2106 4.51028C2.44231 4.33377 2.75659 4.2346 3.08429 4.2346C3.68849 4.2346 4.24574 4.4812 4.54475 4.88029L5.72844 6.45685L8.37507 6.39002ZM9.07194 0.940291L8.92861 0.941232C8.87604 0.946396 8.82831 0.967231 8.79588 0.999169C8.76345 1.03111 8.74898 1.07154 8.75563 1.11159L9.76881 7.29549L5.02416 7.41691L3.47226 5.34714C3.43311 5.2951 3.37662 5.25185 3.30849 5.22177C3.24037 5.19169 3.16303 5.17585 3.08429 5.17583V7.46491L1.86847 7.49691C1.69348 7.49691 1.52566 7.54987 1.40192 7.64412C1.27818 7.73838 1.20867 7.86623 1.20867 7.99953C1.20867 8.13283 1.27818 8.26067 1.40192 8.35493C1.52566 8.44919 1.69348 8.50215 1.86847 8.50215L3.08429 8.53227V10.8232L3.17819 10.8157C3.23958 10.8057 3.2975 10.7859 3.34818 10.7577C3.39885 10.7295 3.44113 10.6934 3.47226 10.6519L5.02416 8.58121L9.76881 8.70263L8.75316 14.9053C8.75316 14.9901 8.84212 15.0588 8.95332 15.0588H9.07194C9.19209 15.0587 9.30962 15.032 9.41014 14.9818C9.51065 14.9317 9.58978 14.8603 9.63784 14.7764L13.0789 8.7864L17.3541 8.89464C17.5084 8.89476 17.6613 8.8717 17.8039 8.82676C17.9466 8.78182 18.0762 8.71589 18.1853 8.63274C18.2945 8.5496 18.381 8.45087 18.44 8.34222C18.499 8.23356 18.5293 8.11711 18.5291 7.99953V7.96941C18.524 7.85188 18.4885 7.73628 18.4247 7.62921C18.3609 7.52214 18.2699 7.42572 18.1571 7.34546C18.0443 7.2652 17.9118 7.20268 17.7672 7.16148C17.6226 7.12028 17.4688 7.10121 17.3145 7.10536L13.0765 7.21172L9.63908 1.22266C9.59101 1.13877 9.51188 1.06738 9.41137 1.01723C9.31086 0.967075 9.19333 0.940338 9.07318 0.940291H9.07194Z" fill="#8CD018"/>
</svg>
