<svg width="21" height="16" viewBox="0 0 21 16" fill="none" xmlns="http://www.w3.org/2000/svg">
<path d="M8.40527 7.43384H10.345V8.72696H8.40527V7.43384Z" fill="#8CD018"/>
<path d="M15.8084 5.60412C14.6617 3.72768 13.0973 2.14123 11.2372 0.96829C10.3779 0.423655 9.39826 0.0976609 8.38393 0.0187686C7.3696 -0.0601237 6.35138 0.110485 5.41816 0.515699C4.60189 0.900727 3.8916 1.47867 3.34864 2.1996C2.80569 2.92054 2.44638 3.76281 2.30175 4.65368C2.25003 4.95756 2.21123 5.24851 2.17244 5.533C1.56709 5.63111 1.01631 5.94114 0.618389 6.40776C0.220467 6.87437 0.00129847 7.4672 0 8.08044V12.0438C0 12.3868 0.136239 12.7157 0.378745 12.9582C0.621252 13.2007 0.950162 13.337 1.29312 13.337V8.08044C1.29312 7.73748 1.42936 7.40857 1.67186 7.16607C1.91437 6.92356 2.24328 6.78732 2.58624 6.78732H14.6963C15.9424 6.78903 17.137 7.28481 18.0181 8.16595C18.8993 9.04709 19.3951 10.2417 19.3968 11.4878V11.9598H18.1037C17.8306 11.2939 17.3219 10.7519 16.6747 10.4371C16.0275 10.1224 15.287 10.0569 14.5946 10.2533C13.9022 10.4497 13.3064 10.8941 12.9207 11.5018C12.5351 12.1094 12.3867 12.8378 12.5039 13.5479C12.6211 14.258 12.9956 14.9001 13.556 15.3517C14.1164 15.8033 14.8234 16.0327 15.5422 15.9962C16.261 15.9598 16.9412 15.6599 17.453 15.1539C17.9648 14.6479 18.2723 13.9712 18.317 13.2529H19.3968C19.7397 13.2529 20.0686 13.1167 20.3111 12.8742C20.5536 12.6317 20.6899 12.3027 20.6899 11.9598V11.4878C20.6873 10.0925 20.1985 8.7417 19.3075 7.66785C18.4166 6.594 17.1792 5.86424 15.8084 5.60412ZM5.81903 5.4942H3.18754C3.18754 5.29377 3.24573 5.08687 3.28452 4.84764C3.39623 4.13737 3.68774 3.46748 4.13136 2.90164C4.57497 2.3358 5.15594 1.89284 5.81903 1.61485V5.4942ZM7.11215 5.4942V1.34329C8.31924 1.18654 9.54344 1.45148 10.5777 2.0933C11.9896 2.97274 13.2082 4.12975 14.1596 5.4942H7.11215ZM15.3881 14.7917C15.0684 14.7917 14.7559 14.6969 14.4901 14.5193C14.2243 14.3417 14.0171 14.0892 13.8947 13.7939C13.7724 13.4985 13.7404 13.1735 13.8028 12.86C13.8651 12.5464 14.0191 12.2584 14.2451 12.0324C14.4712 11.8063 14.7592 11.6524 15.0728 11.59C15.3863 11.5276 15.7113 11.5596 16.0067 11.682C16.302 11.8043 16.5545 12.0115 16.7321 12.2773C16.9097 12.5431 17.0045 12.8556 17.0045 13.1753C17.0045 13.604 16.8342 14.0152 16.5311 14.3183C16.2279 14.6214 15.8168 14.7917 15.3881 14.7917Z" fill="#8CD018"/>
<path d="M7.86856 11.9597C7.59549 11.2938 7.08681 10.7518 6.43958 10.437C5.79236 10.1223 5.05191 10.0569 4.35952 10.2532C3.66712 10.4496 3.07127 10.894 2.68565 11.5017C2.30004 12.1094 2.15165 12.8377 2.26882 13.5478C2.38598 14.2579 2.7605 14.9 3.32089 15.3516C3.88128 15.8032 4.58833 16.0326 5.3071 15.9962C6.02587 15.9597 6.70606 15.6598 7.21786 15.1538C7.72966 14.6479 8.03724 13.9711 8.08192 13.2528H11.5087V13.0912C11.4959 12.7097 11.5395 12.3285 11.638 11.9597H7.86856ZM5.1724 14.7916C4.85271 14.7916 4.5402 14.6968 4.27438 14.5192C4.00857 14.3416 3.80139 14.0892 3.67905 13.7938C3.55671 13.4985 3.5247 13.1734 3.58706 12.8599C3.64943 12.5463 3.80338 12.2583 4.02944 12.0323C4.2555 11.8062 4.54351 11.6523 4.85706 11.5899C5.17061 11.5275 5.49561 11.5595 5.79097 11.6819C6.08633 11.8042 6.33878 12.0114 6.51639 12.2772C6.694 12.543 6.7888 12.8555 6.7888 13.1752C6.7888 13.6039 6.6185 14.0151 6.31537 14.3182C6.01224 14.6213 5.6011 14.7916 5.1724 14.7916Z" fill="#8CD018"/>
</svg>
