<svg width="8" height="17" viewBox="0 0 8 17" fill="none" xmlns="http://www.w3.org/2000/svg">
<path d="M5.08844 16.5001H2.57865C2.24583 16.5001 1.92664 16.3838 1.6913 16.1769C1.45596 15.9699 1.32375 15.6893 1.32375 15.3966V11.5345C0.990927 11.5345 0.671738 11.4183 0.436399 11.2114C0.20106 11.0044 0.0688477 10.7237 0.0688477 10.4311V7.12075C0.0688477 6.68177 0.267166 6.26077 0.620174 5.95036C0.973183 5.63996 1.45197 5.46558 1.9512 5.46558H5.71589C6.21512 5.46558 6.6939 5.63996 7.04691 5.95036C7.39992 6.26077 7.59824 6.68177 7.59824 7.12075V10.4311C7.59824 10.7237 7.46603 11.0044 7.23069 11.2114C6.99535 11.4183 6.67616 11.5345 6.34334 11.5345V15.3966C6.34334 15.6893 6.21113 15.9699 5.97579 16.1769C5.74045 16.3838 5.42126 16.5001 5.08844 16.5001ZM1.9512 6.56902C1.86736 6.56415 1.78331 6.57508 1.70467 6.60108C1.62603 6.62708 1.55462 6.66756 1.49521 6.71979C1.4358 6.77203 1.38977 6.83483 1.3602 6.90398C1.33063 6.97313 1.3182 7.04703 1.32375 7.12075V10.4311H2.57865V15.3966H5.08844V10.4311H6.34334V7.12075C6.34889 7.04703 6.33646 6.97313 6.30689 6.90398C6.27732 6.83483 6.23129 6.77203 6.17188 6.71979C6.11247 6.66756 6.04106 6.62708 5.96241 6.60108C5.88377 6.57508 5.79973 6.56415 5.71589 6.56902H1.9512Z" fill="#8CD018"/>
<path d="M3.83353 4.9138C3.33714 4.9138 2.85189 4.78436 2.43916 4.54187C2.02643 4.29937 1.70474 3.9547 1.51478 3.55144C1.32482 3.14818 1.27512 2.70445 1.37196 2.27635C1.4688 1.84826 1.70783 1.45503 2.05883 1.14639C2.40984 0.837746 2.85704 0.62756 3.34389 0.542406C3.83074 0.457252 4.33538 0.500956 4.79399 0.667991C5.25259 0.835026 5.64457 1.11789 5.92035 1.48081C6.19613 1.84373 6.34333 2.27042 6.34333 2.7069C6.34333 3.2922 6.0789 3.85354 5.60822 4.26741C5.13755 4.68128 4.49917 4.9138 3.83353 4.9138ZM3.83353 1.60345C3.58533 1.60345 3.34271 1.66817 3.13634 1.78941C2.92998 1.91066 2.76913 2.083 2.67415 2.28463C2.57917 2.48626 2.55432 2.70812 2.60274 2.92217C2.65116 3.13622 2.77068 3.33283 2.94618 3.48715C3.12168 3.64147 3.34528 3.74657 3.58871 3.78914C3.83214 3.83172 4.08446 3.80987 4.31376 3.72635C4.54306 3.64283 4.73905 3.5014 4.87694 3.31994C5.01483 3.13848 5.08843 2.92514 5.08843 2.7069C5.08843 2.41425 4.95622 2.13358 4.72088 1.92664C4.48554 1.71971 4.16635 1.60345 3.83353 1.60345Z" fill="#8CD018"/>
</svg>
