<svg width="20" height="17" viewBox="0 0 20 17" fill="none" xmlns="http://www.w3.org/2000/svg">
<path d="M8.37507 6.89002L7.52869 1.72831C7.48187 1.44064 7.58688 1.15057 7.82064 0.921843C8.05441 0.693116 8.39781 0.544436 8.7754 0.508471L8.86436 0.501882L9.07194 0.5C9.43227 0.500061 9.78475 0.580133 10.0863 0.730416C10.3878 0.8807 10.6253 1.09468 10.7696 1.34617L13.8734 6.75072L17.2738 6.66601C17.8816 6.65021 18.4748 6.81002 18.9345 7.1134C19.3942 7.41678 19.6863 7.8413 19.7523 8.30187L19.7647 8.43835V8.49953C19.7647 9.51324 18.686 10.3349 17.343 10.3349L13.8747 10.2483L10.7696 15.6538C10.6253 15.9053 10.3878 16.1193 10.0863 16.2696C9.78475 16.4199 9.43227 16.4999 9.07194 16.5H8.95332C8.74976 16.5 8.54853 16.467 8.36297 16.4032C8.17742 16.3395 8.01178 16.2464 7.87706 16.1301C7.74234 16.0139 7.6416 15.8772 7.58154 15.729C7.52148 15.5808 7.50347 15.4246 7.52869 15.2708L8.37507 10.1081L5.72844 10.0413L4.54475 11.6188C4.39767 11.8149 4.18511 11.978 3.92862 12.0914C3.67214 12.2048 3.38084 12.2645 3.08429 12.2645C2.75659 12.2645 2.44231 12.1653 2.2106 11.9888C1.97888 11.8123 1.8487 11.5729 1.8487 11.3232V9.94338L1.64977 9.93114C1.19361 9.88573 0.774704 9.71549 0.471158 9.45216C0.167613 9.18883 0.000151332 8.85038 1.02517e-07 8.49994C-0.000151127 8.1495 0.167018 7.81097 0.470336 7.54749C0.773655 7.28401 1.19242 7.11356 1.64854 7.06792L1.8487 7.05568V5.67583C1.8487 5.4262 1.97888 5.1868 2.2106 5.01028C2.44231 4.83377 2.75659 4.7346 3.08429 4.7346C3.68849 4.7346 4.24574 4.9812 4.54475 5.38029L5.72844 6.95685L8.37507 6.89002ZM9.07194 1.44029L8.92861 1.44123C8.87604 1.4464 8.82831 1.46723 8.79588 1.49917C8.76345 1.53111 8.74898 1.57154 8.75563 1.61159L9.76881 7.79549L5.02416 7.91691L3.47226 5.84714C3.43311 5.7951 3.37662 5.75185 3.30849 5.72177C3.24037 5.69169 3.16303 5.67585 3.08429 5.67583V7.96491L1.86847 7.99691C1.69348 7.99691 1.52566 8.04987 1.40192 8.14412C1.27818 8.23838 1.20867 8.36623 1.20867 8.49953C1.20867 8.63283 1.27818 8.76067 1.40192 8.85493C1.52566 8.94919 1.69348 9.00215 1.86847 9.00215L3.08429 9.03227V11.3232L3.17819 11.3157C3.23958 11.3057 3.2975 11.2859 3.34818 11.2577C3.39885 11.2295 3.44113 11.1934 3.47226 11.1519L5.02416 9.08121L9.76881 9.20263L8.75316 15.4053C8.75316 15.4901 8.84212 15.5588 8.95332 15.5588H9.07194C9.19209 15.5587 9.30962 15.532 9.41014 15.4818C9.51065 15.4317 9.58978 15.3603 9.63784 15.2764L13.0789 9.2864L17.3541 9.39464C17.5084 9.39476 17.6613 9.3717 17.8039 9.32676C17.9466 9.28182 18.0762 9.21589 18.1853 9.13274C18.2945 9.0496 18.381 8.95087 18.44 8.84222C18.499 8.73356 18.5293 8.61711 18.5291 8.49953V8.46941C18.524 8.35188 18.4885 8.23628 18.4247 8.12921C18.3609 8.02214 18.2699 7.92572 18.1571 7.84546C18.0443 7.7652 17.9118 7.70268 17.7672 7.66148C17.6226 7.62028 17.4688 7.60121 17.3145 7.60536L13.0765 7.71172L9.63908 1.72266C9.59101 1.63877 9.51188 1.56738 9.41137 1.51723C9.31086 1.46707 9.19333 1.44034 9.07318 1.44029H9.07194Z" fill="#7E7E7E"/>
</svg>
