<svg width="16" height="12" viewBox="0 0 16 12" fill="none" xmlns="http://www.w3.org/2000/svg">
<path d="M6.30396 5.57544H7.75871V6.54528H6.30396V5.57544Z" fill="#666666"/>
<path d="M11.8563 4.20309C10.9962 2.79576 9.823 1.60592 8.42789 0.726217C7.78339 0.317741 7.04869 0.0732456 6.28794 0.0140765C5.5272 -0.0450927 4.76353 0.0828637 4.06362 0.386774C3.45141 0.675545 2.9187 1.109 2.51148 1.6497C2.10426 2.19041 1.83478 2.82211 1.72631 3.49025C1.68752 3.71817 1.65842 3.93638 1.62933 4.14974C1.17532 4.22333 0.762233 4.45586 0.463791 4.80581C0.16535 5.15577 0.000973852 5.60039 0 6.06033V9.03288C0 9.29009 0.102179 9.53678 0.284059 9.71866C0.465939 9.90054 0.712621 10.0027 0.969838 10.0027V6.06033C0.969838 5.80311 1.07202 5.55643 1.2539 5.37455C1.43578 5.19267 1.68246 5.09049 1.93968 5.09049H11.0222C11.9568 5.09177 12.8527 5.4636 13.5136 6.12446C14.1745 6.78531 14.5463 7.68126 14.5476 8.61585V8.96984H13.5777C13.3729 8.47043 12.9914 8.0639 12.506 7.82784C12.0206 7.59178 11.4652 7.5427 10.946 7.68997C10.4267 7.83725 9.97977 8.17056 9.69055 8.62632C9.40134 9.08207 9.29005 9.62835 9.37793 10.1609C9.4658 10.6935 9.74669 11.1751 10.167 11.5138C10.5873 11.8524 11.1176 12.0245 11.6566 11.9972C12.1957 11.9698 12.7059 11.7449 13.0897 11.3654C13.4736 10.9859 13.7042 10.4784 13.7378 9.93968H14.5476C14.8048 9.93968 15.0515 9.8375 15.2333 9.65562C15.4152 9.47374 15.5174 9.22706 15.5174 8.96984V8.61585C15.5155 7.56936 15.1488 6.55627 14.4806 5.75088C13.8124 4.94549 12.8844 4.39817 11.8563 4.20309ZM4.36427 4.12065H2.39065C2.39065 3.97032 2.43429 3.81515 2.46339 3.63573C2.54717 3.10303 2.76581 2.60061 3.09852 2.17623C3.43123 1.75185 3.86695 1.41963 4.36427 1.21114V4.12065ZM5.33411 4.12065V1.00747C6.23943 0.889906 7.15757 1.08861 7.93327 1.56998C8.99221 2.22955 9.90616 3.09731 10.6197 4.12065H5.33411ZM11.5411 11.0938C11.3013 11.0938 11.0669 11.0227 10.8676 10.8895C10.6682 10.7563 10.5128 10.5669 10.4211 10.3454C10.3293 10.1239 10.3053 9.88014 10.3521 9.64498C10.3988 9.40982 10.5143 9.1938 10.6838 9.02426C10.8534 8.85472 11.0694 8.73926 11.3046 8.69248C11.5397 8.64571 11.7835 8.66971 12.005 8.76147C12.2265 8.85322 12.4158 9.00861 12.5491 9.20797C12.6823 9.40733 12.7534 9.64172 12.7534 9.88149C12.7534 10.203 12.6256 10.5114 12.3983 10.7387C12.1709 10.9661 11.8626 11.0938 11.5411 11.0938Z" fill="#666666"/>
<path d="M5.90147 8.9699C5.69667 8.47049 5.31516 8.06397 4.82975 7.82791C4.34433 7.59184 3.78899 7.54276 3.2697 7.69004C2.7504 7.83731 2.30351 8.17063 2.0143 8.62638C1.72509 9.08214 1.6138 9.62842 1.70167 10.161C1.78955 10.6936 2.07043 11.1751 2.49073 11.5138C2.91102 11.8525 3.44131 12.0246 3.98038 11.9972C4.51946 11.9699 5.0296 11.745 5.41345 11.3655C5.7973 10.986 6.02799 10.4785 6.0615 9.93974H8.63157V9.81851C8.62197 9.53241 8.65465 9.24646 8.72855 8.9699H5.90147ZM3.87936 11.0938C3.63959 11.0938 3.40521 11.0227 3.20585 10.8895C3.00648 10.7563 2.8511 10.567 2.75935 10.3455C2.66759 10.124 2.64358 9.88021 2.69036 9.64504C2.73714 9.40988 2.8526 9.19387 3.02214 9.02433C3.19168 8.85478 3.40769 8.73933 3.64285 8.69255C3.87802 8.64577 4.12177 8.66978 4.34329 8.76153C4.56481 8.85329 4.75414 9.00867 4.88735 9.20803C5.02056 9.4074 5.09166 9.64178 5.09166 9.88155C5.09166 10.2031 4.96394 10.5114 4.73659 10.7388C4.50924 10.9661 4.20088 11.0938 3.87936 11.0938Z" fill="#666666"/>
</svg>
