<svg width="17" height="16" viewBox="0 0 17 16" fill="none" xmlns="http://www.w3.org/2000/svg">
<path d="M8.02747 0C10.2366 0 12.2366 0.895443 13.6844 2.34323C15.1322 3.79089 16.0276 5.79102 16.0276 8C16.0276 10.2092 15.1322 12.2091 13.6844 13.6568C12.2366 15.1046 10.2366 16 8.02747 16C5.81835 16 3.81835 15.1046 2.37069 13.6568C0.922908 12.2091 0.0274658 10.2091 0.0274658 7.99987C0.0274658 5.79089 0.922908 3.79076 2.37069 2.3431C3.81835 0.895443 5.81835 0 8.02747 0ZM10.465 4.86576C10.6344 4.69622 10.9092 4.69622 11.0786 4.86576C11.248 5.03516 11.248 5.3099 11.0786 5.47943L8.55767 8.00052L11.0786 10.5216C11.248 10.691 11.248 10.9658 11.0786 11.1353C10.9092 11.3047 10.6344 11.3047 10.465 11.1353L7.94387 8.61419L5.42278 11.1354C5.25338 11.3048 4.97851 11.3048 4.80911 11.1354C4.63971 10.9659 4.63971 10.6911 4.80911 10.5217L7.33033 8.00065L4.80911 5.47943C4.63971 5.3099 4.63971 5.03516 4.80911 4.86576C4.97851 4.69622 5.25338 4.69622 5.42278 4.86576L7.944 7.38685L10.465 4.86576ZM13.0707 2.95677C11.7801 1.66615 9.997 0.867969 8.02747 0.867969C6.05793 0.867969 4.27499 1.66615 2.98437 2.95677C1.69374 4.2474 0.895434 6.03047 0.895434 7.99987C0.895434 9.9694 1.69374 11.7525 2.98424 13.0431C4.27486 14.3336 6.0578 15.1319 8.02734 15.1319C9.99687 15.1319 11.7799 14.3336 13.0706 13.0431C14.3612 11.7525 15.1595 9.9694 15.1595 7.99987C15.1596 6.03047 14.3613 4.2474 13.0707 2.95677Z" fill="white"/>
</svg>
