<svg width="20" height="20" viewBox="0 0 20 20" fill="none" xmlns="http://www.w3.org/2000/svg">
<path d="M10 0C12.7614 0 15.2614 1.1193 17.0711 2.92904C18.8809 4.73861 20.0002 7.23877 20.0002 10C20.0002 12.7616 18.8809 15.2614 17.0711 17.071C15.2614 18.8807 12.7614 20 10 20C7.23861 20 4.73861 18.8807 2.92904 17.071C1.1193 15.2614 0 12.7614 0 9.99984C0 7.23861 1.1193 4.73844 2.92904 2.92887C4.73861 1.1193 7.23861 0 10 0ZM13.0469 6.08219C13.2586 5.87028 13.6022 5.87028 13.814 6.08219C14.0257 6.29395 14.0257 6.63737 13.814 6.84928L10.6628 10.0007L13.814 13.152C14.0257 13.3638 14.0257 13.7072 13.814 13.9191C13.6022 14.1309 13.2586 14.1309 13.0469 13.9191L9.89551 10.7677L6.74414 13.9193C6.53239 14.131 6.1888 14.131 5.97705 13.9193C5.7653 13.7074 5.7653 13.3639 5.97705 13.1522L9.12858 10.0008L5.97705 6.84928C5.7653 6.63737 5.7653 6.29395 5.97705 6.08219C6.1888 5.87028 6.53239 5.87028 6.74414 6.08219L9.89567 9.23356L13.0469 6.08219ZM16.304 3.69596C14.6908 2.08268 12.4619 1.08496 10 1.08496C7.53809 1.08496 5.30941 2.08268 3.69613 3.69596C2.08285 5.30925 1.08496 7.53809 1.08496 9.99984C1.08496 12.4618 2.08285 14.6906 3.69596 16.3039C5.30925 17.917 7.53792 18.9149 9.99984 18.9149C12.4618 18.9149 14.6906 17.917 16.3039 16.3039C17.9172 14.6906 18.915 12.4618 18.915 9.99984C18.9152 7.53809 17.9173 5.30925 16.304 3.69596Z" fill="#414E5E"/>
</svg>
