<svg width="14" height="12" viewBox="0 0 14 12" fill="none" xmlns="http://www.w3.org/2000/svg">
<path fill-rule="evenodd" clip-rule="evenodd" d="M4.45455 10.5C4.45455 10.6326 4.50483 10.7598 4.59434 10.8536C4.68384 10.9473 4.80524 11 4.93182 11L12.5682 11C12.6948 11 12.8162 10.9473 12.9057 10.8536C12.9952 10.7598 13.0455 10.6326 13.0455 10.5L13.0455 1.5C13.0455 1.36739 12.9952 1.24021 12.9057 1.14645C12.8162 1.05268 12.6948 1 12.5682 1L4.93182 1C4.80524 1 4.68384 1.05268 4.59434 1.14645C4.50483 1.24021 4.45455 1.36739 4.45455 1.5V3.5C4.45455 3.63261 4.40426 3.75979 4.31476 3.85355C4.22525 3.94732 4.10385 4 3.97727 4C3.85069 4 3.7293 3.94732 3.63979 3.85355C3.55028 3.75979 3.5 3.63261 3.5 3.5V1.5C3.5 1.10218 3.65085 0.720644 3.91937 0.43934C4.18789 0.158035 4.55208 0 4.93182 0L12.5682 0C12.9479 0 13.3121 0.158035 13.5806 0.43934C13.8491 0.720644 14 1.10218 14 1.5L14 10.5C14 10.8978 13.8491 11.2794 13.5806 11.5607C13.3121 11.842 12.9479 12 12.5682 12L4.93182 12C4.55208 12 4.18789 11.842 3.91937 11.5607C3.65085 11.2794 3.5 10.8978 3.5 10.5V8.5C3.5 8.36739 3.55028 8.24021 3.63979 8.14645C3.7293 8.05268 3.85069 8 3.97727 8C4.10385 8 4.22525 8.05268 4.31476 8.14645C4.40426 8.24021 4.45455 8.36739 4.45455 8.5V10.5Z" fill="#666666"/>
<path fill-rule="evenodd" clip-rule="evenodd" d="M10.3598 5.6533C10.4042 5.69879 10.4395 5.75283 10.4636 5.81233C10.4876 5.87182 10.5 5.9356 10.5 6.00002C10.5 6.06443 10.4876 6.12821 10.4636 6.18771C10.4395 6.2472 10.4042 6.30124 10.3598 6.34673L7.49639 9.28498C7.40678 9.37693 7.28524 9.42859 7.15851 9.42859C7.03178 9.42859 6.91024 9.37693 6.82063 9.28498C6.73102 9.19302 6.68067 9.06831 6.68067 8.93826C6.68067 8.80822 6.73102 8.6835 6.82063 8.59155L8.86987 6.48972L0.477234 6.48972C0.350664 6.48972 0.229278 6.43813 0.139778 6.34629C0.0502796 6.25445 0 6.1299 0 6.00002C0 5.87014 0.0502796 5.74558 0.139778 5.65374C0.229278 5.5619 0.350664 5.51031 0.477234 5.51031L8.86987 5.51031L6.82063 3.40848C6.77626 3.36295 6.74106 3.3089 6.71705 3.24941C6.69303 3.18992 6.68067 3.12616 6.68067 3.06177C6.68067 2.99738 6.69303 2.93362 6.71705 2.87413C6.74106 2.81464 6.77626 2.76059 6.82063 2.71506C6.865 2.66953 6.91768 2.63341 6.97565 2.60877C7.03362 2.58413 7.09576 2.57145 7.15851 2.57145C7.22126 2.57145 7.2834 2.58413 7.34137 2.60877C7.39934 2.63341 7.45202 2.66953 7.49639 2.71506L10.3598 5.6533Z" fill="#666666"/>
</svg>
