<svg width="24" height="24" viewBox="0 0 24 24" fill="none" xmlns="http://www.w3.org/2000/svg">
<g clip-path="url(#clip0_184_58)">
<path d="M12.0032 7.95732C9.73177 7.95732 7.89962 9.76084 7.89962 11.9968C7.89962 14.2327 9.73177 16.0362 12.0032 16.0362C14.2746 16.0362 16.1068 14.2327 16.1068 11.9968C16.1068 9.76084 14.2746 7.95732 12.0032 7.95732ZM12.0032 14.6229C10.5353 14.6229 9.33534 13.4452 9.33534 11.9968C9.33534 10.5483 10.5318 9.3706 12.0032 9.3706C13.4746 9.3706 14.671 10.5483 14.671 11.9968C14.671 13.4452 13.471 14.6229 12.0032 14.6229ZM17.2318 7.79209C17.2318 8.31592 16.8032 8.73428 16.2746 8.73428C15.7425 8.73428 15.3175 8.3124 15.3175 7.79209C15.3175 7.27178 15.746 6.8499 16.2746 6.8499C16.8032 6.8499 17.2318 7.27178 17.2318 7.79209ZM19.9496 8.74834C19.8889 7.48623 19.596 6.36826 18.6568 5.44717C17.721 4.52607 16.5853 4.23779 15.3032 4.17451C13.9818 4.10068 10.0211 4.10068 8.69962 4.17451C7.42105 4.23428 6.28534 4.52256 5.34605 5.44365C4.40677 6.36475 4.11748 7.48271 4.0532 8.74482C3.9782 10.0456 3.9782 13.9444 4.0532 15.2452C4.11391 16.5073 4.40677 17.6253 5.34605 18.5464C6.28534 19.4675 7.41748 19.7558 8.69962 19.819C10.0211 19.8929 13.9818 19.8929 15.3032 19.819C16.5853 19.7593 17.721 19.471 18.6568 18.5464C19.5925 17.6253 19.8853 16.5073 19.9496 15.2452C20.0246 13.9444 20.0246 10.0491 19.9496 8.74834ZM18.2425 16.6409C17.9639 17.33 17.4246 17.8608 16.721 18.1386C15.6675 18.5499 13.1675 18.455 12.0032 18.455C10.8389 18.455 8.33534 18.5464 7.28534 18.1386C6.58534 17.8643 6.04605 17.3335 5.76391 16.6409C5.34605 15.6038 5.44248 13.1429 5.44248 11.9968C5.44248 10.8507 5.34963 8.38623 5.76391 7.35264C6.04248 6.66357 6.58177 6.13271 7.28534 5.85498C8.33891 5.44365 10.8389 5.53857 12.0032 5.53857C13.1675 5.53857 15.671 5.44717 16.721 5.85498C17.421 6.1292 17.9603 6.66006 18.2425 7.35264C18.6603 8.38974 18.5639 10.8507 18.5639 11.9968C18.5639 13.1429 18.6603 15.6073 18.2425 16.6409Z" fill="#414E5E"/>
</g>
<defs>
<clipPath id="clip0_184_58">
<rect width="16" height="18" fill="white" transform="translate(3.99976 2.99951)"/>
</clipPath>
</defs>
</svg>
