<svg width="14" height="15" viewBox="0 0 14 15" fill="none" xmlns="http://www.w3.org/2000/svg">
<path d="M11.6667 1.66663H5.4445V3.61107H6.22228V2.4444H11.6667C11.9001 2.4444 12.0556 2.59996 12.0556 2.83329V7.11107C12.0556 7.3444 11.9001 7.49996 11.6667 7.49996H6.61117V10.2222H4.55005L3.11117 11.35V10.2222H1.9445C1.71117 10.2222 1.55561 10.0666 1.55561 9.83329V5.55551C1.55561 5.32218 1.71117 5.16663 1.9445 5.16663H7.00005V4.38885H1.9445C1.28339 4.38885 0.777832 4.8944 0.777832 5.55551V9.83329C0.777832 10.4944 1.28339 11 1.9445 11H2.33339V12.9833L4.78339 11H7.38894V8.27774H11.6667C12.3278 8.27774 12.8334 7.77218 12.8334 7.11107V2.83329C12.8334 2.17218 12.3278 1.66663 11.6667 1.66663Z" fill="#666666"/>
<path d="M2.41113 9.40557H3.34447L3.5778 8.78335H4.78336L5.01669 9.40557H5.95002L4.6278 5.94446H3.69447L2.41113 9.40557ZM4.16113 6.91668L4.55002 8.12224H3.77224L4.16113 6.91668Z" fill="#666666"/>
<path d="M7.77783 7.11115C8.20561 7.11115 8.78894 6.99448 9.33339 6.72226C9.87783 6.99448 10.5001 7.11115 10.8889 7.11115V6.33337C10.8889 6.33337 10.5001 6.33337 10.0723 6.17782C10.5389 5.71115 10.8889 5.01115 10.8889 4.00004V3.61115H9.72228V2.83337H8.9445V3.61115H7.77783V4.38893H10.0723C9.9945 5.08893 9.68339 5.51671 9.33339 5.78893C9.10005 5.59449 8.86672 5.32226 8.71117 4.97226H7.8945C8.05005 5.47782 8.28339 5.86671 8.5945 6.17782C8.20561 6.33337 7.85561 6.33337 7.77783 6.33337V7.11115Z" fill="#666666"/>
</svg>
