<svg width="24" height="24" viewBox="0 0 24 24" fill="none" xmlns="http://www.w3.org/2000/svg">
<g clip-path="url(#clip0_184_62)">
<path d="M7.63244 18.999V8.87855H4.20214V18.999H7.63244ZM5.91774 7.49594C7.11394 7.49594 7.85852 6.71881 7.85852 5.74765C7.83624 4.75459 7.11399 3.99902 5.94044 3.99902C4.76707 3.99902 3.99976 4.7546 3.99976 5.74765C3.99976 6.71885 4.74415 7.49594 5.89534 7.49594H5.91763H5.91774ZM9.5311 18.999H12.9614V13.3473C12.9614 13.0448 12.9837 12.7426 13.0743 12.5264C13.3223 11.9221 13.8867 11.2961 14.8343 11.2961C16.0756 11.2961 16.5721 12.2242 16.5721 13.5847V18.999H20.0022V13.196C20.0022 10.0874 18.3099 8.64095 16.053 8.64095C14.2025 8.64095 13.39 9.65528 12.9386 10.3461H12.9615V8.87834H9.53118C9.5762 9.82799 9.53118 18.9988 9.53118 18.9988L9.5311 18.999Z" fill="#414E5E"/>
</g>
<defs>
<clipPath id="clip0_184_62">
<rect width="16" height="15" fill="white" transform="translate(3.99976 3.99902)"/>
</clipPath>
</defs>
</svg>
