<svg width="11" height="12" viewBox="0 0 11 12" fill="none" xmlns="http://www.w3.org/2000/svg">
<path d="M7.318 7.28557H6.40891V6.42843H4.59073V7.28557H3.68164V6.42843C3.68188 6.20117 3.77774 5.98329 3.94817 5.82259C4.11861 5.66189 4.3497 5.57152 4.59073 5.57129H6.40891C6.64994 5.57152 6.88103 5.66189 7.05147 5.82259C7.2219 5.98329 7.31776 6.20117 7.318 6.42843V7.28557Z" fill="#666666"/>
<path d="M5.49987 5.14272C5.23016 5.14272 4.96652 5.06731 4.74227 4.92604C4.51802 4.78476 4.34324 4.58396 4.24003 4.34903C4.13682 4.11409 4.10982 3.85558 4.16243 3.60617C4.21505 3.35677 4.34492 3.12768 4.53563 2.94787C4.72634 2.76806 4.96931 2.6456 5.23383 2.59599C5.49835 2.54638 5.77253 2.57185 6.02171 2.66916C6.27088 2.76647 6.48385 2.93126 6.63369 3.1427C6.78353 3.35413 6.8635 3.60271 6.8635 3.857C6.86314 4.19789 6.71936 4.52472 6.4637 4.76577C6.20805 5.00681 5.86141 5.14238 5.49987 5.14272ZM5.49987 3.42843C5.40997 3.42843 5.32208 3.45357 5.24733 3.50066C5.17258 3.54775 5.11432 3.61469 5.07992 3.693C5.04552 3.77131 5.03652 3.85748 5.05406 3.94061C5.07159 4.02375 5.11489 4.10011 5.17845 4.16005C5.24202 4.21999 5.32302 4.2608 5.41119 4.27734C5.49936 4.29388 5.59076 4.28539 5.67381 4.25295C5.75687 4.22052 5.82786 4.16558 5.87781 4.09511C5.92775 4.02463 5.95441 3.94177 5.95441 3.857C5.95429 3.74337 5.90636 3.63443 5.82114 3.55408C5.73593 3.47374 5.62038 3.42855 5.49987 3.42843Z" fill="#666666"/>
<path d="M5.5 12L1.66546 7.73614C1.61218 7.67212 1.55945 7.60769 1.50728 7.54286C0.852269 6.72934 0.498418 5.73567 0.500005 4.71429C0.500005 3.46398 1.02679 2.26488 1.96447 1.38078C2.90215 0.496682 4.17392 0 5.5 0C6.82608 0 8.09785 0.496682 9.03553 1.38078C9.97321 2.26488 10.5 3.46398 10.5 4.71429C10.5016 5.7352 10.1479 6.72842 9.49318 7.54157L9.49272 7.54286C9.49272 7.54286 9.35636 7.71171 9.33591 7.73443L5.5 12ZM2.23273 7.02643C2.23364 7.02643 2.33909 7.15843 2.36319 7.18671L5.5 10.6749L8.64091 7.182C8.66091 7.15843 8.76727 7.02557 8.76772 7.02514C9.30279 6.36048 9.59196 5.54873 9.59091 4.71429C9.59091 3.69131 9.1599 2.71023 8.39271 1.98687C7.62551 1.26352 6.58498 0.857143 5.5 0.857143C4.41502 0.857143 3.37449 1.26352 2.60729 1.98687C1.8401 2.71023 1.4091 3.69131 1.4091 4.71429C1.40814 5.54925 1.69763 6.36146 2.23319 7.02643H2.23273Z" fill="#666666"/>
</svg>
