<svg width="182" height="48" viewBox="0 0 182 48" fill="none" xmlns="http://www.w3.org/2000/svg">
<path d="M58.1476 6.7666H57.9763V39.177H58.1476V6.7666Z" fill="#414E5E"/>
<path d="M71.112 19H69.2854L74.5686 4.61161H76.3672L81.6504 19H79.8238L75.5241 6.88789H75.4117L71.112 19ZM71.7865 13.3795H79.1493V14.9252H71.7865V13.3795ZM83.6668 23.0467V8.2087H85.2686V9.92295H85.4653C85.5871 9.7356 85.7557 9.49673 85.9711 9.20634C86.1913 8.91126 86.5051 8.64897 86.9126 8.41947C87.3247 8.18529 87.8821 8.06819 88.5847 8.06819C89.4933 8.06819 90.2942 8.29535 90.9874 8.74967C91.6806 9.20399 92.2216 9.84801 92.6103 10.6817C92.9991 11.5154 93.1934 12.499 93.1934 13.6325C93.1934 14.7753 92.9991 15.7659 92.6103 16.6043C92.2216 17.438 91.6829 18.0843 90.9944 18.5433C90.3059 18.9977 89.512 19.2248 88.6128 19.2248C87.9196 19.2248 87.3646 19.1101 86.9477 18.8806C86.5308 18.6464 86.21 18.3817 85.9852 18.0867C85.7604 17.7869 85.5871 17.5387 85.4653 17.342H85.3248V23.0467H83.6668ZM85.2967 13.6044C85.2967 14.4193 85.4161 15.1383 85.655 15.7612C85.8939 16.3795 86.2428 16.8642 86.7018 17.2155C87.1608 17.5621 87.7229 17.7354 88.3879 17.7354C89.0811 17.7354 89.6596 17.5527 90.1233 17.1874C90.5916 16.8174 90.9429 16.3209 91.1771 15.698C91.416 15.0704 91.5354 14.3725 91.5354 13.6044C91.5354 12.8456 91.4183 12.1618 91.1841 11.5529C90.9546 10.9393 90.6057 10.4545 90.1373 10.0986C89.6736 9.73794 89.0905 9.55762 88.3879 9.55762C87.7135 9.55762 87.1468 9.72857 86.6878 10.0705C86.2287 10.4077 85.8822 10.8808 85.648 11.4897C85.4138 12.0939 85.2967 12.7988 85.2967 13.6044ZM100.247 19.2248C99.2073 19.2248 98.3104 18.9953 97.5563 18.5363C96.8069 18.0726 96.2285 17.4263 95.821 16.5973C95.4182 15.7635 95.2168 14.794 95.2168 13.6887C95.2168 12.5833 95.4182 11.6091 95.821 10.766C96.2285 9.91826 96.7952 9.25786 97.5212 8.7848C98.2519 8.30706 99.1043 8.06819 100.079 8.06819C100.641 8.06819 101.196 8.16187 101.744 8.34922C102.292 8.53656 102.79 8.84101 103.24 9.26254C103.69 9.67939 104.048 10.2321 104.315 10.9206C104.582 11.6091 104.715 12.4568 104.715 13.4638V14.1664H96.3971V12.7332H103.029C103.029 12.1243 102.907 11.581 102.664 11.1032C102.425 10.6255 102.083 10.2485 101.638 9.97213C101.198 9.69579 100.678 9.55762 100.079 9.55762C99.4181 9.55762 98.8467 9.72155 98.3643 10.0494C97.8865 10.3726 97.5189 10.7941 97.2613 11.314C97.0037 11.8339 96.8748 12.3913 96.8748 12.9861V13.9416C96.8748 14.7565 97.0154 15.4474 97.2964 16.0141C97.5821 16.5762 97.9779 17.0047 98.4837 17.2998C98.9896 17.5902 99.5774 17.7354 100.247 17.7354C100.683 17.7354 101.076 17.6745 101.427 17.5527C101.783 17.4263 102.09 17.2389 102.348 16.9907C102.605 16.7378 102.804 16.424 102.945 16.0493L104.547 16.4989C104.378 17.0422 104.095 17.5199 103.697 17.9321C103.299 18.3396 102.807 18.6581 102.221 18.8876C101.636 19.1124 100.978 19.2248 100.247 19.2248ZM108.184 8.2087L110.77 12.6208L113.355 8.2087H115.266L111.781 13.6044L115.266 19H113.355L110.77 14.8128L108.184 19H106.273L109.702 13.6044L106.273 8.2087H108.184ZM123.421 19V4.61161H125.163V11.0189H132.835V4.61161H134.578V19H132.835V12.5646H125.163V19H123.421ZM142.225 19.2248C141.251 19.2248 140.396 18.993 139.661 18.5293C138.93 18.0656 138.359 17.4169 137.946 16.5832C137.539 15.7495 137.335 14.7753 137.335 13.6606C137.335 12.5365 137.539 11.5552 137.946 10.7168C138.359 9.87845 138.93 9.22741 139.661 8.76373C140.396 8.30004 141.251 8.06819 142.225 8.06819C143.199 8.06819 144.052 8.30004 144.782 8.76373C145.518 9.22741 146.089 9.87845 146.497 10.7168C146.909 11.5552 147.115 12.5365 147.115 13.6606C147.115 14.7753 146.909 15.7495 146.497 16.5832C146.089 17.4169 145.518 18.0656 144.782 18.5293C144.052 18.993 143.199 19.2248 142.225 19.2248ZM142.225 17.7354C142.965 17.7354 143.574 17.5457 144.052 17.1663C144.529 16.7869 144.883 16.2881 145.112 15.6699C145.342 15.0516 145.457 14.3818 145.457 13.6606C145.457 12.9393 145.342 12.2671 145.112 11.6442C144.883 11.0213 144.529 10.5178 144.052 10.1337C143.574 9.74965 142.965 9.55762 142.225 9.55762C141.485 9.55762 140.876 9.74965 140.398 10.1337C139.921 10.5178 139.567 11.0213 139.337 11.6442C139.108 12.2671 138.993 12.9393 138.993 13.6606C138.993 14.3818 139.108 15.0516 139.337 15.6699C139.567 16.2881 139.921 16.7869 140.398 17.1663C140.876 17.5457 141.485 17.7354 142.225 17.7354ZM154.339 8.2087V9.61382H148.746V8.2087H154.339ZM150.376 5.62329H152.034V15.9087C152.034 16.3771 152.102 16.7284 152.238 16.9626C152.379 17.1921 152.557 17.3466 152.772 17.4263C152.992 17.5012 153.224 17.5387 153.468 17.5387C153.65 17.5387 153.8 17.5293 153.917 17.5106C154.034 17.4872 154.128 17.4684 154.198 17.4544L154.536 18.9438C154.423 18.9859 154.266 19.0281 154.065 19.0703C153.863 19.1171 153.608 19.1405 153.299 19.1405C152.831 19.1405 152.372 19.0398 151.922 18.8384C151.477 18.637 151.107 18.3302 150.812 17.9181C150.522 17.5059 150.376 16.986 150.376 16.3584V5.62329ZM161.241 19.2248C160.202 19.2248 159.305 18.9953 158.551 18.5363C157.801 18.0726 157.223 17.4263 156.815 16.5973C156.413 15.7635 156.211 14.794 156.211 13.6887C156.211 12.5833 156.413 11.6091 156.815 10.766C157.223 9.91826 157.79 9.25786 158.516 8.7848C159.246 8.30706 160.099 8.06819 161.073 8.06819C161.635 8.06819 162.19 8.16187 162.738 8.34922C163.286 8.53656 163.785 8.84101 164.234 9.26254C164.684 9.67939 165.042 10.2321 165.309 10.9206C165.576 11.6091 165.71 12.4568 165.71 13.4638V14.1664H157.391V12.7332H164.024C164.024 12.1243 163.902 11.581 163.658 11.1032C163.419 10.6255 163.078 10.2485 162.633 9.97213C162.192 9.69579 161.672 9.55762 161.073 9.55762C160.412 9.55762 159.841 9.72155 159.359 10.0494C158.881 10.3726 158.513 10.7941 158.256 11.314C157.998 11.8339 157.869 12.3913 157.869 12.9861V13.9416C157.869 14.7565 158.01 15.4474 158.291 16.0141C158.576 16.5762 158.972 17.0047 159.478 17.2998C159.984 17.5902 160.572 17.7354 161.241 17.7354C161.677 17.7354 162.071 17.6745 162.422 17.5527C162.778 17.4263 163.085 17.2389 163.342 16.9907C163.6 16.7378 163.799 16.424 163.939 16.0493L165.541 16.4989C165.373 17.0422 165.089 17.5199 164.691 17.9321C164.293 18.3396 163.801 18.6581 163.216 18.8876C162.63 19.1124 161.972 19.2248 161.241 19.2248ZM169.89 4.61161V19H168.232V4.61161H169.89ZM180.571 10.6255L179.081 11.047C178.988 10.7988 178.849 10.5576 178.667 10.3234C178.489 10.0845 178.245 9.88782 177.936 9.73326C177.627 9.57869 177.231 9.50141 176.749 9.50141C176.088 9.50141 175.538 9.65363 175.098 9.95807C174.662 10.2578 174.444 10.6396 174.444 11.1032C174.444 11.5154 174.594 11.8409 174.894 12.0798C175.194 12.3187 175.662 12.5177 176.299 12.677L177.901 13.0704C178.866 13.3046 179.585 13.6629 180.058 14.1453C180.531 14.6231 180.767 15.239 180.767 15.9931C180.767 16.6113 180.589 17.164 180.233 17.6511C179.882 18.1382 179.39 18.5223 178.758 18.8033C178.126 19.0843 177.39 19.2248 176.552 19.2248C175.451 19.2248 174.54 18.9859 173.819 18.5082C173.098 18.0305 172.641 17.3326 172.449 16.4146L174.023 16.0212C174.173 16.6019 174.456 17.0375 174.873 17.3279C175.294 17.6183 175.845 17.7635 176.524 17.7635C177.297 17.7635 177.91 17.5996 178.365 17.2717C178.824 16.9392 179.053 16.541 179.053 16.0774C179.053 15.7027 178.922 15.3889 178.66 15.1359C178.397 14.8783 177.995 14.6863 177.451 14.5598L175.653 14.1383C174.664 13.9041 173.938 13.5411 173.475 13.0493C173.016 12.5529 172.786 11.9323 172.786 11.1876C172.786 10.5787 172.957 10.04 173.299 9.57167C173.646 9.10329 174.116 8.73562 174.711 8.46865C175.311 8.20168 175.99 8.06819 176.749 8.06819C177.817 8.06819 178.655 8.30238 179.264 8.77075C179.877 9.23912 180.313 9.85737 180.571 10.6255Z" fill="#414E5E"/>
<path d="M74.3719 43.1967C73.4258 43.1967 72.6108 43.0234 71.927 42.6768C71.2432 42.3302 70.7163 41.8548 70.3462 41.2506C69.9762 40.6464 69.7912 39.9556 69.7912 39.1781C69.7912 38.5786 69.9177 38.047 70.1706 37.5833C70.4282 37.1149 70.7818 36.6817 71.2315 36.2835C71.6858 35.8807 72.208 35.4779 72.7982 35.0751L74.8777 33.5295C75.2852 33.2625 75.6107 32.9768 75.8543 32.6724C76.1025 32.368 76.2267 31.9698 76.2267 31.478C76.2267 31.1127 76.0651 30.7591 75.7419 30.4172C75.4234 30.0753 75.0042 29.9043 74.4843 29.9043C74.119 29.9043 73.7958 29.998 73.5148 30.1853C73.2384 30.368 73.0207 30.6022 72.8614 30.8879C72.7068 31.1689 72.6296 31.4593 72.6296 31.7591C72.6296 32.0963 72.7209 32.4382 72.9036 32.7848C73.0909 33.1267 73.3274 33.478 73.6131 33.8386C73.9035 34.1946 74.2033 34.5599 74.5124 34.9346L81.1165 43H79.1212L73.6693 36.4241C73.1635 35.8152 72.7045 35.2625 72.2923 34.766C71.8802 34.2695 71.5523 33.7801 71.3088 33.2977C71.0652 32.8152 70.9434 32.293 70.9434 31.731C70.9434 31.0846 71.0863 30.5179 71.372 30.0308C71.6624 29.539 72.0675 29.1573 72.5874 28.8856C73.112 28.6093 73.7256 28.4711 74.4281 28.4711C75.1494 28.4711 75.77 28.6116 76.2899 28.8926C76.8098 29.169 77.2102 29.5366 77.4913 29.9956C77.7723 30.45 77.9128 30.9441 77.9128 31.478C77.9128 32.1666 77.7418 32.7637 77.3999 33.2696C77.058 33.7754 76.592 34.2461 76.0018 34.6817L73.1354 36.8175C72.489 37.2952 72.0511 37.7589 71.8216 38.2086C71.5921 38.6582 71.4774 38.9814 71.4774 39.1781C71.4774 39.6277 71.5945 40.0469 71.8286 40.4357C72.0628 40.8244 72.393 41.1382 72.8193 41.3771C73.2455 41.616 73.7443 41.7354 74.3157 41.7354C74.859 41.7354 75.3883 41.6206 75.9035 41.3911C76.4187 41.157 76.8847 40.8197 77.3016 40.3795C77.7231 39.9392 78.0557 39.4099 78.2992 38.7917C78.5474 38.1734 78.6716 37.4779 78.6716 36.7051H80.2734C80.2734 37.6606 80.1633 38.4404 79.9432 39.0446C79.7231 39.6488 79.4748 40.1219 79.1985 40.4638C78.9221 40.8057 78.6997 41.0609 78.5311 41.2296C78.4748 41.2998 78.4233 41.3701 78.3765 41.4403C78.3297 41.5106 78.2781 41.5808 78.2219 41.6511C77.7582 42.171 77.1728 42.5597 76.4655 42.8173C75.7583 43.0703 75.0604 43.1967 74.3719 43.1967ZM88.741 43V28.6116H93.6027C94.7268 28.6116 95.6495 28.8036 96.3708 29.1877C97.0921 29.5671 97.626 30.0893 97.9726 30.7544C98.3192 31.4195 98.4925 32.1759 98.4925 33.0237C98.4925 33.8714 98.3192 34.6232 97.9726 35.2789C97.626 35.9346 97.0944 36.4498 96.3778 36.8245C95.6612 37.1945 94.7455 37.3795 93.6308 37.3795H89.6965V35.8058H93.5746C94.3427 35.8058 94.961 35.6934 95.4293 35.4686C95.9024 35.2438 96.2443 34.9253 96.4551 34.5131C96.6705 34.0962 96.7782 33.5998 96.7782 33.0237C96.7782 32.4476 96.6705 31.9441 96.4551 31.5132C96.2396 31.0823 95.8954 30.7497 95.4223 30.5155C94.9493 30.2767 94.324 30.1572 93.5465 30.1572H90.4833V43H88.741ZM95.5136 36.5365L99.0545 43H97.0312L93.5465 36.5365H95.5136ZM105.58 43.2248C104.54 43.2248 103.643 42.9953 102.889 42.5363C102.139 42.0726 101.561 41.4263 101.153 40.5973C100.751 39.7635 100.549 38.794 100.549 37.6887C100.549 36.5833 100.751 35.6091 101.153 34.766C101.561 33.9183 102.128 33.2579 102.854 32.7848C103.584 32.3071 104.437 32.0682 105.411 32.0682C105.973 32.0682 106.528 32.1619 107.076 32.3492C107.624 32.5366 108.123 32.841 108.572 33.2625C109.022 33.6794 109.38 34.2321 109.647 34.9206C109.914 35.6091 110.048 36.4568 110.048 37.4638V38.1664H101.73V36.7332H108.362C108.362 36.1243 108.24 35.581 107.996 35.1032C107.757 34.6255 107.416 34.2485 106.971 33.9721C106.53 33.6958 106.01 33.5576 105.411 33.5576C104.751 33.5576 104.179 33.7215 103.697 34.0494C103.219 34.3726 102.851 34.7941 102.594 35.314C102.336 35.8339 102.207 36.3913 102.207 36.9861V37.9416C102.207 38.7565 102.348 39.4474 102.629 40.0141C102.915 40.5762 103.31 41.0047 103.816 41.2998C104.322 41.5902 104.91 41.7354 105.58 41.7354C106.015 41.7354 106.409 41.6745 106.76 41.5527C107.116 41.4263 107.423 41.2389 107.68 40.9907C107.938 40.7378 108.137 40.424 108.277 40.0493L109.879 40.4989C109.711 41.0422 109.427 41.5199 109.029 41.9321C108.631 42.3396 108.139 42.6581 107.554 42.8876C106.968 43.1124 106.31 43.2248 105.58 43.2248ZM120.214 34.6255L118.724 35.047C118.631 34.7988 118.493 34.5576 118.31 34.3234C118.132 34.0845 117.888 33.8878 117.579 33.7333C117.27 33.5787 116.874 33.5014 116.392 33.5014C115.732 33.5014 115.181 33.6536 114.741 33.9581C114.305 34.2578 114.088 34.6396 114.088 35.1032C114.088 35.5154 114.237 35.8409 114.537 36.0798C114.837 36.3187 115.305 36.5177 115.942 36.677L117.544 37.0704C118.509 37.3046 119.228 37.6629 119.701 38.1453C120.174 38.6231 120.411 39.239 120.411 39.9931C120.411 40.6113 120.233 41.164 119.877 41.6511C119.525 42.1382 119.034 42.5223 118.401 42.8033C117.769 43.0843 117.034 43.2248 116.195 43.2248C115.095 43.2248 114.184 42.9859 113.462 42.5082C112.741 42.0305 112.284 41.3326 112.092 40.4146L113.666 40.0212C113.816 40.6019 114.099 41.0375 114.516 41.3279C114.938 41.6183 115.488 41.7635 116.167 41.7635C116.94 41.7635 117.553 41.5996 118.008 41.2717C118.467 40.9392 118.696 40.541 118.696 40.0774C118.696 39.7027 118.565 39.3889 118.303 39.1359C118.041 38.8783 117.638 38.6863 117.094 38.5598L115.296 38.1383C114.308 37.9041 113.582 37.5411 113.118 37.0493C112.659 36.5529 112.429 35.9323 112.429 35.1876C112.429 34.5787 112.6 34.04 112.942 33.5717C113.289 33.1033 113.76 32.7356 114.354 32.4687C114.954 32.2017 115.633 32.0682 116.392 32.0682C117.46 32.0682 118.298 32.3024 118.907 32.7707C119.521 33.2391 119.956 33.8574 120.214 34.6255ZM127.29 43.2248C126.316 43.2248 125.461 42.993 124.726 42.5293C123.995 42.0656 123.424 41.4169 123.012 40.5832C122.604 39.7495 122.401 38.7753 122.401 37.6606C122.401 36.5365 122.604 35.5552 123.012 34.7168C123.424 33.8785 123.995 33.2274 124.726 32.7637C125.461 32.3 126.316 32.0682 127.29 32.0682C128.265 32.0682 129.117 32.3 129.848 32.7637C130.583 33.2274 131.154 33.8785 131.562 34.7168C131.974 35.5552 132.18 36.5365 132.18 37.6606C132.18 38.7753 131.974 39.7495 131.562 40.5832C131.154 41.4169 130.583 42.0656 129.848 42.5293C129.117 42.993 128.265 43.2248 127.29 43.2248ZM127.29 41.7354C128.03 41.7354 128.639 41.5457 129.117 41.1663C129.595 40.7869 129.948 40.2881 130.178 39.6699C130.407 39.0516 130.522 38.3818 130.522 37.6606C130.522 36.9393 130.407 36.2671 130.178 35.6442C129.948 35.0213 129.595 34.5178 129.117 34.1337C128.639 33.7496 128.03 33.5576 127.29 33.5576C126.55 33.5576 125.941 33.7496 125.464 34.1337C124.986 34.5178 124.632 35.0213 124.403 35.6442C124.173 36.2671 124.059 36.9393 124.059 37.6606C124.059 38.3818 124.173 39.0516 124.403 39.6699C124.632 40.2881 124.986 40.7869 125.464 41.1663C125.941 41.5457 126.55 41.7354 127.29 41.7354ZM134.711 43V32.2087H136.313V33.8386H136.425C136.622 33.3047 136.978 32.8715 137.493 32.5389C138.008 32.2064 138.589 32.0401 139.236 32.0401C139.357 32.0401 139.51 32.0424 139.692 32.0471C139.875 32.0518 140.013 32.0588 140.107 32.0682V33.7543C140.051 33.7403 139.922 33.7192 139.72 33.6911C139.524 33.6583 139.315 33.6419 139.095 33.6419C138.571 33.6419 138.102 33.752 137.69 33.9721C137.282 34.1876 136.959 34.4873 136.72 34.8714C136.486 35.2508 136.369 35.684 136.369 36.1711V43H134.711ZM147.441 32.2087V33.6138H141.849V32.2087H147.441ZM143.479 29.6233H145.137V39.9087C145.137 40.3771 145.205 40.7284 145.341 40.9626C145.481 41.1921 145.659 41.3466 145.875 41.4263C146.095 41.5012 146.327 41.5387 146.57 41.5387C146.753 41.5387 146.903 41.5293 147.02 41.5106C147.137 41.4872 147.231 41.4684 147.301 41.4544L147.638 42.9438C147.526 42.9859 147.369 43.0281 147.167 43.0703C146.966 43.1171 146.711 43.1405 146.402 43.1405C145.933 43.1405 145.474 43.0398 145.025 42.8384C144.58 42.637 144.21 42.3302 143.915 41.9181C143.624 41.5059 143.479 40.986 143.479 40.3584V29.6233ZM157.386 34.6255L155.897 35.047C155.803 34.7988 155.665 34.5576 155.482 34.3234C155.304 34.0845 155.061 33.8878 154.752 33.7333C154.442 33.5787 154.047 33.5014 153.564 33.5014C152.904 33.5014 152.354 33.6536 151.913 33.9581C151.478 34.2578 151.26 34.6396 151.26 35.1032C151.26 35.5154 151.41 35.8409 151.71 36.0798C152.009 36.3187 152.478 36.5177 153.115 36.677L154.716 37.0704C155.681 37.3046 156.4 37.6629 156.873 38.1453C157.346 38.6231 157.583 39.239 157.583 39.9931C157.583 40.6113 157.405 41.164 157.049 41.6511C156.698 42.1382 156.206 42.5223 155.574 42.8033C154.941 43.0843 154.206 43.2248 153.368 43.2248C152.267 43.2248 151.356 42.9859 150.635 42.5082C149.913 42.0305 149.457 41.3326 149.265 40.4146L150.838 40.0212C150.988 40.6019 151.272 41.0375 151.688 41.3279C152.11 41.6183 152.66 41.7635 153.339 41.7635C154.112 41.7635 154.726 41.5996 155.18 41.2717C155.639 40.9392 155.869 40.541 155.869 40.0774C155.869 39.7027 155.738 39.3889 155.475 39.1359C155.213 38.8783 154.81 38.6863 154.267 38.5598L152.468 38.1383C151.48 37.9041 150.754 37.5411 150.29 37.0493C149.831 36.5529 149.602 35.9323 149.602 35.1876C149.602 34.5787 149.773 34.04 150.115 33.5717C150.461 33.1033 150.932 32.7356 151.527 32.4687C152.126 32.2017 152.806 32.0682 153.564 32.0682C154.632 32.0682 155.471 32.3024 156.079 32.7707C156.693 33.2391 157.129 33.8574 157.386 34.6255Z" fill="#414E5E"/>
<mask id="mask0_143_419" style="mask-type:luminance" maskUnits="userSpaceOnUse" x="16" y="30" width="7" height="7">
<path d="M16.619 36.9608H19.4946V33.9628H16.619V36.9608ZM19.9778 36.9608H22.8534V33.9628H19.9778V36.9608ZM16.619 33.5625H19.4946V30.5645H16.619V33.5625ZM19.9778 33.5625H22.8534V30.5645H19.9778V33.5625Z" fill="white"/>
</mask>
<g mask="url(#mask0_143_419)">
<path d="M14.0004 32.0972L21.3597 27.79L25.4721 35.4279L18.1127 39.7351L14.0004 32.0972Z" fill="url(#paint0_linear_143_419)"/>
</g>
<path d="M49.7379 43.9362H44.1769L38.4888 33.6161L38.46 33.5625C36.1451 29.3804 33.8338 25.1963 31.518 21.0123C31.2854 20.5922 31.0276 20.1824 30.7698 19.7567L28.39 23.5225L27.942 24.2311L25.2421 19.3582L26.0471 17.8639L26.0787 17.8047C26.6286 16.8094 27.3127 15.5482 27.704 14.74C27.8374 14.4674 27.5588 13.9045 27.3587 13.5389C26.1472 11.3144 24.9338 9.09076 23.688 6.89066L26.4519 1.87958C34.2124 15.8941 41.9035 29.7845 49.7379 43.9362Z" fill="#414E5E"/>
<mask id="mask1_143_419" style="mask-type:luminance" maskUnits="userSpaceOnUse" x="0" y="9" width="39" height="36">
<path d="M0 44.0357C3.94381 44.0357 7.72176 44.0423 11.4528 44.0301V38.9946C10.4639 39.0002 9.4354 38.9833 8.32031 38.9833C11.9883 32.3708 15.512 26.0129 19.1259 19.4963C22.7821 26.1079 26.2969 32.4572 29.909 38.9917C28.8642 38.9917 27.915 38.9805 27.0054 38.9861V43.9361H38.1337L29.2906 27.9245L27.6725 24.9951L19.1133 9.49762C12.6914 21.1034 6.40385 32.4629 0 44.0357Z" fill="white"/>
</mask>
<g mask="url(#mask1_143_419)">
<path d="M-16.564 27.0928L18.7112 -10.3775L54.6986 26.4472L19.4234 63.9175L-16.564 27.0928Z" fill="url(#paint1_linear_143_419)"/>
</g>
<defs>
<linearGradient id="paint0_linear_143_419" x1="17.3561" y1="35.13" x2="22.8987" y2="32.1454" gradientUnits="userSpaceOnUse">
<stop stop-color="#7DC910"/>
<stop offset="1" stop-color="#B6E432"/>
</linearGradient>
<linearGradient id="paint1_linear_143_419" x1="5.05942" y1="41.6384" x2="32.1015" y2="15.211" gradientUnits="userSpaceOnUse">
<stop stop-color="#7DC910"/>
<stop offset="1" stop-color="#B6E432"/>
</linearGradient>
</defs>
</svg>
