<svg width="24" height="24" viewBox="0 0 24 24" fill="none" xmlns="http://www.w3.org/2000/svg">
<path d="M4.64394 4.7998H20.5439C22.0439 4.7998 22.7999 5.5078 22.7999 6.9478V17.0518C22.7999 18.4798 22.0439 19.1998 20.5439 19.1998H4.64394C3.14394 19.1998 2.38794 18.4798 2.38794 17.0518V6.9478C2.38794 5.5078 3.14394 4.7998 4.64394 4.7998ZM12.5879 15.1198L20.6759 8.4838C20.9639 8.2438 21.1919 7.6918 20.8319 7.1998C20.4839 6.7078 19.8479 6.6958 19.4279 6.9958L12.5879 11.6278L5.75994 6.9958C5.33994 6.6958 4.70394 6.7078 4.35594 7.1998C3.99594 7.6918 4.22394 8.2438 4.51194 8.4838L12.5879 15.1198Z" fill="#414E5E"/>
</svg>
