<svg width="22" height="16" viewBox="0 0 22 16" fill="none" xmlns="http://www.w3.org/2000/svg">
<path d="M1.26186 0H20.7383C21.0855 0 21.4009 0.142973 21.6294 0.372558C21.858 0.602503 22 0.92032 22 1.26911V14.7307C22 14.9938 21.9193 15.2389 21.7814 15.4422C21.7561 15.5079 21.7168 15.5691 21.6629 15.6211C21.6269 15.6552 21.5873 15.6831 21.5454 15.7041C21.3261 15.888 21.0443 16 20.7383 16H1.26186C0.915063 16 0.59924 15.8572 0.370429 15.6273C0.142156 15.3975 0 15.0802 0 14.7307V1.26911C0 0.9196 0.141798 0.602143 0.37025 0.372558C0.598703 0.142613 0.914347 0 1.26186 0ZM0.967879 14.1968L7.79352 7.31467L0.967879 1.71748V14.1968ZM8.5453 7.93103L1.50822 15.0264H20.4327L13.7077 7.93211L11.4907 9.832C11.3168 9.98145 11.0565 9.98992 10.8724 9.83974L8.5453 7.93103ZM14.4437 7.30152L21.0321 14.2517V1.65625L14.4437 7.30152ZM1.58753 0.97344L11.1698 8.83137L20.3407 0.97344H1.58753Z" fill="#808893"/>
</svg>
