<svg width="29" height="30" viewBox="0 0 29 30" fill="none" xmlns="http://www.w3.org/2000/svg">
<path d="M7.56844 26.8597L12.4046 22.2229C12.5857 22.047 12.8196 21.9608 13.0541 21.962L26.4547 21.9573C26.6112 21.9573 26.753 21.894 26.8521 21.7949C26.9541 21.6888 27.0186 21.5464 27.0186 21.3922V2.44622C27.0186 2.29439 26.9529 2.15312 26.8509 2.05112C26.7466 1.94677 26.6047 1.88112 26.4547 1.88112H2.44622C2.29732 1.88112 2.15663 1.94795 2.05229 2.05229C1.94795 2.15663 1.88112 2.29732 1.88112 2.44622V21.3922C1.88112 21.5429 1.94677 21.6865 2.04994 21.7897L2.08101 21.8219C2.17949 21.9052 2.30846 21.9573 2.44622 21.9573H6.62817C7.14696 21.9573 7.56844 22.3794 7.56844 22.8976V26.8597ZM7.25189 13.3906C7.89085 13.3906 8.40905 13.9094 8.40905 14.5477C8.40905 15.1861 7.89085 15.7043 7.25189 15.7043C6.61352 15.7043 6.09532 15.1861 6.09532 14.5477C6.09532 13.9094 6.61352 13.3906 7.25189 13.3906ZM7.25189 7.46175C7.89085 7.46175 8.40905 7.98054 8.40905 8.61891C8.40905 9.25728 7.89085 9.77607 7.25189 9.77607C6.61352 9.77607 6.09532 9.25728 6.09532 8.61891C6.09532 7.98054 6.61352 7.46175 7.25189 7.46175ZM10.8699 15.6035C10.2867 15.6035 9.81359 15.1304 9.81359 14.5477C9.81359 13.9645 10.2867 13.4914 10.8699 13.4914H21.7475C22.3307 13.4914 22.8032 13.9645 22.8032 14.5477C22.8032 15.1304 22.3307 15.6035 21.7475 15.6035H10.8699ZM10.8699 9.67525C10.2867 9.67525 9.81359 9.20218 9.81359 8.61891C9.81359 8.03623 10.2867 7.56316 10.8699 7.56316H21.7475C22.3307 7.56316 22.8032 8.03623 22.8032 8.61891C22.8032 9.20218 22.3307 9.67525 21.7475 9.67525H10.8699ZM13.4269 23.8384L7.3322 29.6823C7.15868 29.8769 6.90779 30 6.62817 30C6.10939 30 5.68732 29.5779 5.68732 29.0597V23.8384H2.44622C1.81136 23.8384 1.22926 23.5875 0.793716 23.1866L0.719855 23.1198C0.276687 22.6766 0 22.0617 0 21.3922V2.44622C0 1.77795 0.279618 1.16361 0.721613 0.721613C1.16361 0.279618 1.77795 0 2.44622 0H26.4547C27.1229 0 27.7384 0.277859 28.181 0.720441C28.6207 1.16068 28.8997 1.77326 28.8997 2.44622V21.3922C28.8997 22.0652 28.6242 22.6789 28.1822 23.1209C27.7361 23.5629 27.1241 23.8384 26.4547 23.8384H13.4269Z" fill="black"/>
</svg>
