<svg width="16" height="16" viewBox="0 0 16 16" fill="none" xmlns="http://www.w3.org/2000/svg">
<path d="M5.33333 1.14286C5.86075 1.14286 6.37632 1.31043 6.81485 1.62437C7.25339 1.93832 7.59518 2.38454 7.79701 2.90662C7.99885 3.42869 8.05166 4.00317 7.94876 4.5574C7.84587 5.11163 7.59189 5.62073 7.21895 6.02031C6.84601 6.41988 6.37086 6.692 5.85357 6.80224C5.33629 6.91249 4.80011 6.85591 4.31284 6.63966C3.82557 6.42341 3.4091 6.0572 3.11608 5.58734C2.82306 5.11749 2.66667 4.56509 2.66667 4C2.66667 3.24224 2.94762 2.51551 3.44772 1.97969C3.94781 1.44388 4.62609 1.14286 5.33333 1.14286ZM5.33333 0C4.59495 0 3.87315 0.234596 3.2592 0.674122C2.64526 1.11365 2.16675 1.73836 1.88418 2.46927C1.60162 3.20017 1.52768 4.00444 1.67173 4.78036C1.81579 5.55629 2.17135 6.26902 2.69347 6.82843C3.21558 7.38784 3.8808 7.7688 4.605 7.92314C5.32919 8.07748 6.07984 7.99827 6.76202 7.69552C7.4442 7.39277 8.02726 6.88008 8.43749 6.22228C8.84771 5.56448 9.06667 4.79113 9.06667 4C9.06667 2.93913 8.67334 1.92172 7.9732 1.17157C7.27306 0.421427 6.32348 0 5.33333 0ZM10.6667 16H9.6V13.1429C9.6 12.3851 9.31905 11.6584 8.81895 11.1226C8.31886 10.5867 7.64058 10.2857 6.93333 10.2857H3.73333C3.02609 10.2857 2.34781 10.5867 1.84772 11.1226C1.34762 11.6584 1.06667 12.3851 1.06667 13.1429V16H0V13.1429C0 12.082 0.393332 11.0646 1.09347 10.3144C1.7936 9.56429 2.74319 9.14286 3.73333 9.14286H6.93333C7.92348 9.14286 8.87306 9.56429 9.5732 10.3144C10.2733 11.0646 10.6667 12.082 10.6667 13.1429V16ZM10.6667 1.14286H16V2.28571H10.6667V1.14286ZM10.6667 4H16V5.14286H10.6667V4ZM10.6667 6.85714H14.4V8H10.6667V6.85714Z" fill="#808893"/>
</svg>
