<svg width="20" height="20" viewBox="0 0 20 20" fill="none" xmlns="http://www.w3.org/2000/svg">
<path d="M10 0C12.7613 0 15.2613 1.11953 17.0707 2.9293C18.8805 4.73867 20 7.23867 20 10C20 12.7609 18.8805 15.2613 17.0707 17.0707C15.2613 18.8805 12.7613 20 10 20C7.23867 20 4.73867 18.8805 2.9293 17.0707C1.11953 15.2613 0 12.7609 0 10C0 7.23867 1.11953 4.73867 2.9293 2.9293C4.73867 1.11953 7.23867 0 10 0ZM12.0863 10.8074V13.1656C12.0863 13.3508 11.9312 13.5063 11.7461 13.5063H8.25352C8.06836 13.5063 7.91328 13.3531 7.91328 13.1656V10.8074H6.21602C6.04023 10.807 5.86406 10.7461 5.72148 10.6223C5.4082 10.3492 5.37539 9.87344 5.64805 9.56016L9.52969 5.1043C9.55664 5.07422 9.58555 5.0457 9.61758 5.01914C9.93789 4.7543 10.4121 4.79922 10.677 5.11914L14.3398 9.54609C14.4625 9.68008 14.5375 9.85859 14.5375 10.0543C14.5375 10.4703 14.2 10.8074 13.784 10.8074H12.0863ZM15.8637 4.13633C14.3633 2.63594 12.2898 1.70742 10 1.70742C7.71016 1.70742 5.63672 2.63594 4.13633 4.13633C2.63594 5.63672 1.70742 7.71016 1.70742 10C1.70742 12.2898 2.63594 14.3633 4.13633 15.8637C5.63672 17.3641 7.71016 18.2926 10 18.2926C12.2898 18.2926 14.3633 17.3641 15.8637 15.8637C17.3641 14.3633 18.2926 12.2898 18.2926 10C18.2926 7.71016 17.3641 5.63672 15.8637 4.13633Z" fill="black"/>
</svg>
