<svg width="24" height="24" viewBox="0 0 24 24" fill="none" xmlns="http://www.w3.org/2000/svg">
<g clip-path="url(#clip0_182_44)">
<path d="M3.24387 5.39531L5.73996 2.90156C5.91604 2.72471 6.12533 2.58439 6.35579 2.48867C6.58626 2.39294 6.83337 2.34369 7.08293 2.34375C7.59153 2.34375 8.06965 2.54297 8.42824 2.90156L11.1142 5.5875C11.291 5.76358 11.4314 5.97286 11.5271 6.20333C11.6228 6.4338 11.6721 6.68091 11.672 6.93047C11.672 7.43906 11.4728 7.91719 11.1142 8.27578L9.15012 10.2398C9.60986 11.2532 10.2491 12.175 11.0368 12.9609C11.8226 13.7506 12.7444 14.3922 13.7579 14.8547L15.722 12.8906C15.8981 12.7138 16.1074 12.5735 16.3378 12.4777C16.5683 12.382 16.8154 12.3328 17.065 12.3328C17.5736 12.3328 18.0517 12.532 18.4103 12.8906L21.0986 15.5742C21.2756 15.7506 21.4161 15.9603 21.5118 16.1912C21.6075 16.4221 21.6567 16.6696 21.6564 16.9195C21.6564 17.4281 21.4572 17.9062 21.0986 18.2648L18.6072 20.7562C18.0353 21.3305 17.2454 21.6562 16.4345 21.6562C16.2634 21.6562 16.0993 21.6422 15.9376 21.6141C12.7782 21.0937 9.64465 19.4133 7.11574 16.8867C4.58918 14.3625 2.91106 11.2312 2.38371 8.0625C2.22434 7.09453 2.54543 6.09844 3.24387 5.39531Z" fill="#414E5E"/>
</g>
<defs>
<clipPath id="clip0_182_44">
<rect width="24" height="24" fill="white" transform="matrix(-1 0 0 1 24.0001 0)"/>
</clipPath>
</defs>
</svg>
