<svg width="16" height="16" viewBox="0 0 16 16" fill="none" xmlns="http://www.w3.org/2000/svg">
<path d="M4.40396 6.58117C4.94264 7.55505 5.56257 8.49229 6.36675 9.34669C7.17458 10.2052 8.17486 10.9874 9.47553 11.6507L9.47683 11.6513L9.47709 11.6507C9.57188 11.6992 9.66212 11.698 9.74689 11.6661C9.86981 11.6199 9.9978 11.5173 10.1223 11.3931C10.2172 11.2981 10.3362 11.1413 10.4649 10.9714C10.9657 10.31 11.5848 9.49248 12.4589 9.8992C12.4774 9.9077 12.4948 9.91765 12.5113 9.92877L15.4245 11.6106C15.4349 11.6166 15.4449 11.6231 15.4544 11.6299C15.8406 11.8963 15.9983 12.3067 16 12.7661C16.0018 13.24 15.8269 13.7704 15.5737 14.2188C15.2397 14.8099 14.742 15.2006 14.1725 15.4653C13.6295 15.7176 13.0269 15.8519 12.445 15.9375C11.5349 16.0716 10.677 15.9864 9.80327 15.716C8.95039 15.4521 8.08761 15.0113 7.14697 14.4257L7.07848 14.3831C6.6454 14.1135 6.17925 13.8235 5.72572 13.4796C4.05057 12.2089 2.34468 10.3751 1.23854 8.36261C0.307405 6.66846 -0.202109 4.84122 0.0756301 3.09892C0.227846 2.14284 0.63814 1.27496 1.34544 0.700076C1.96551 0.195862 2.80224 -0.0772487 3.87778 0.0191971C4.00447 0.0301896 4.11124 0.102818 4.1714 0.204891L4.17218 0.204499L6.03732 3.38054C6.31206 3.73622 6.34253 4.08916 6.19396 4.44C6.07117 4.73025 5.81739 4.9963 5.48093 5.24716C5.37858 5.33222 5.25853 5.42055 5.1347 5.51163C4.71829 5.81798 4.24198 6.1683 4.40396 6.58117ZM5.81648 9.86988C4.95657 8.9562 4.30148 7.96688 3.73637 6.94419C3.72647 6.92809 3.71762 6.91108 3.71007 6.89315C3.29678 5.91705 4.0382 5.37187 4.68573 4.89592C4.79576 4.81505 4.90227 4.73666 4.99837 4.65658L4.99863 4.65697C5.00423 4.65226 5.01009 4.64768 5.01621 4.64323C5.25619 4.46604 5.42911 4.29684 5.49512 4.14111C5.53275 4.05225 5.51882 3.9545 5.43444 3.8447C5.41999 3.82782 5.40671 3.80924 5.39499 3.78935L3.61918 0.765769C2.85497 0.734231 2.26252 0.938638 1.82436 1.29498C1.27239 1.74371 0.948952 2.4412 0.825122 3.21853C0.577071 4.77501 1.04856 6.43696 1.90483 7.99501C2.95667 9.90862 4.58391 11.6562 6.18407 12.8696C6.62405 13.2033 7.06637 13.4786 7.47732 13.7343L7.54581 13.7769C8.43358 14.3296 9.24076 14.7435 10.0266 14.9866C10.7917 15.2233 11.5414 15.2981 12.3351 15.1811C12.8571 15.1043 13.3915 14.9867 13.8544 14.7716C14.2907 14.5688 14.6679 14.2763 14.9135 13.842C15.1083 13.4969 15.2429 13.1022 15.2418 12.766C15.241 12.5527 15.1803 12.3696 15.0328 12.263L12.1356 10.5907C11.8152 10.4492 11.4026 10.9939 11.0688 11.4347C10.925 11.6248 10.7921 11.8001 10.6578 11.9342C10.4655 12.1261 10.2518 12.2906 10.0117 12.3806C9.73361 12.4852 9.43946 12.4898 9.13216 12.3322L9.13242 12.3317C7.75037 11.627 6.68277 10.7905 5.81648 9.86988Z" fill="#808893"/>
</svg>
