<svg width="20" height="20" viewBox="0 0 20 20" fill="none" xmlns="http://www.w3.org/2000/svg">
<path d="M10 20C12.7613 20 15.2613 18.8805 17.0707 17.0707C18.8805 15.2613 20 12.7613 20 10C20 7.23906 18.8805 4.73867 17.0707 2.9293C15.2613 1.11953 12.7613 0 10 0C7.23867 0 4.73867 1.11953 2.9293 2.9293C1.11953 4.73867 0 7.23906 0 10C0 12.7613 1.11953 15.2613 2.9293 17.0707C4.73867 18.8805 7.23867 20 10 20ZM12.0863 9.19258V6.83438C12.0863 6.64922 11.9313 6.49375 11.7461 6.49375H8.25352C8.06836 6.49375 7.91328 6.64688 7.91328 6.83438V9.19258H6.21602C6.04023 9.19297 5.86406 9.25391 5.72148 9.37774C5.4082 9.65078 5.37539 10.1266 5.64805 10.4398L9.52969 14.8957C9.55664 14.9258 9.58555 14.9543 9.61758 14.9809C9.93789 15.2457 10.4121 15.2008 10.677 14.8809L14.3398 10.4539C14.4625 10.3199 14.5375 10.1414 14.5375 9.9457C14.5375 9.52969 14.2 9.19258 13.784 9.19258H12.0863ZM15.8637 15.8637C14.3633 17.3641 12.2898 18.2926 10 18.2926C7.71016 18.2926 5.63672 17.3641 4.13633 15.8637C2.63594 14.3633 1.70742 12.2898 1.70742 10C1.70742 7.71016 2.63594 5.63672 4.13633 4.13633C5.63672 2.63594 7.71016 1.70742 10 1.70742C12.2898 1.70742 14.3633 2.63594 15.8637 4.13633C17.3641 5.63672 18.2926 7.71016 18.2926 10C18.2926 12.2898 17.3641 14.3633 15.8637 15.8637Z" fill="black"/>
</svg>
