<svg width="10" height="8" viewBox="0 0 10 8" fill="none" xmlns="http://www.w3.org/2000/svg">
<path fill-rule="evenodd" clip-rule="evenodd" d="M4.14595 0.663615C2.55902 1.10385 1.5262 2.02437 1.26936 3.62634C1.19944 4.06228 1.2971 3.73298 1.59261 3.51188C2.55746 2.79 4.45455 3.04547 4.71783 4.69471C5.24752 7.61426 1.59691 8.11974 0.516428 6.50722C0.265059 6.13241 0.098651 5.69491 0.0386895 5.21444C-0.221664 3.12477 0.849244 1.26362 2.73051 0.389394C3.07856 0.227674 3.44536 0.10111 3.84009 0.0083359C4.03775 -0.0317035 4.1813 0.0759146 4.24752 0.257752C4.30357 0.413027 4.32271 0.584318 4.14595 0.663615ZM9.37608 0.663615C7.78915 1.10385 6.75613 2.02437 6.49949 3.62634C6.42957 4.06228 6.52722 3.73298 6.82273 3.51188C7.78759 2.79 9.68467 3.04547 9.94776 4.69471C10.4776 7.61426 6.82703 8.11974 5.74655 6.50722C5.49518 6.13241 5.32878 5.69491 5.26881 5.21444C5.00846 3.12477 6.07917 1.26362 7.96063 0.389394C8.30868 0.227674 8.67529 0.10111 9.07022 0.0083359C9.26787 -0.0317035 9.41143 0.0759146 9.47764 0.257752C9.5337 0.413027 9.55284 0.584318 9.37608 0.663615Z" fill="#444444"/>
</svg>
