<svg width="41" height="30" viewBox="0 0 41 30" fill="none" xmlns="http://www.w3.org/2000/svg">
<path fill-rule="evenodd" clip-rule="evenodd" d="M18.8853 12.3401V12.266L30.0299 7.82485L19.8062 13.7463C21.3936 15.336 23.5011 16.2847 25.7322 16.4137C30.3703 16.7239 34.648 14.6366 37.5075 11.0183C38.0526 10.3151 38.5297 9.5608 38.9323 8.76568C39.4362 7.7945 41.2347 4.5269 40.9744 3.74457C40.594 2.60478 35.302 1.81908 34.0907 1.65384C27.7977 0.773713 20.1098 1.82919 18.4014 9.30522C18.3202 9.67009 18.2954 10.0455 18.328 10.418L17.9743 10.6541L17.6407 10.4079C17.7055 10.149 17.7358 9.88248 17.7308 9.61546C17.5739 3.16456 11.4177 0.982786 6.09225 0.625339C5.06787 0.557897 0.576638 0.301614 0.0761285 1.175C-0.270891 1.77187 0.666729 4.7697 0.916984 5.65657C1.1167 6.3796 1.38372 7.08189 1.71446 7.75404C2.54801 9.47326 3.78488 10.9604 5.31734 12.086C6.84979 13.2115 8.63133 13.9413 10.5067 14.2117C12.37 14.4878 14.2689 14.0656 15.8455 13.0247L8.41461 6.40855L16.4228 11.6859V11.7433C17.0601 13.9992 16.95 17.2668 16.3327 19.9983L19.5393 21.1077C18.8719 18.5786 18.0678 14.8591 18.8719 12.3401H18.8853Z" fill="#414E5E"/>
<path fill-rule="evenodd" clip-rule="evenodd" d="M3.31293 27.6733C2.50878 27.7104 1.92152 28.8636 2.2018 29.5381H32.5193C32.2501 28.8602 31.8105 28.2651 31.244 27.8115C30.6776 27.358 30.0038 27.0616 29.2894 26.9516C28.8956 22.8444 24.9249 21.3775 21.9986 22.9523C23.0964 19.8735 20.764 19.2227 19.1023 19.6847C18.2681 18.6461 15.0983 19.4722 14.9982 21.3438C11.0842 18.673 7.36706 20.8885 7.75412 24.6619C6.43611 23.8931 3.21283 24.3517 3.31293 27.6733Z" fill="#414E5E"/>
</svg>
