<svg width="41" height="30" viewBox="0 0 41 30" fill="none" xmlns="http://www.w3.org/2000/svg">
<path fill-rule="evenodd" clip-rule="evenodd" d="M8.24861 0C10.3851 0 12.1155 1.74789 12.1155 3.90589C12.1155 6.0639 10.3851 7.81178 8.24861 7.81178C6.11214 7.81178 4.3817 6.0639 4.3817 3.90589C4.3817 1.74789 6.11214 0 8.24861 0ZM12.2678 10.1675V17.0492C12.785 18.2112 13.8073 18.7556 14.5903 18.9851L12.1977 21.0235V28.0638C12.1977 30.6442 8.76581 30.6466 8.76581 28.0638V19.6125H7.73383V28.0614C7.73383 30.6417 4.30194 30.6442 4.30194 28.0614V20.9893L1.95521 18.9851C2.81076 18.6116 3.76299 18.0989 4.23185 17.1493V10.3238L2.95094 11.1269L3.27479 15.421C3.33521 16.2241 2.73584 16.9247 1.94071 16.9858C1.14557 17.0468 0.451946 16.4414 0.391525 15.6382L0 10.4629H0.00483364C-0.0338355 9.93806 0.21268 9.41076 0.686377 9.11538L4.44695 6.76208C4.58471 6.95005 4.73697 7.12581 4.8989 7.28937C5.24208 7.63602 5.64086 7.9314 6.0783 8.16087L6.37557 8.98111L7.32538 11.5956L7.79666 9.40832H7.70482C7.53806 9.40832 7.40272 9.27161 7.40272 9.10317V8.60761C7.40272 7.9314 9.09691 7.80934 9.09691 8.60761V9.10317C9.09691 9.27161 8.96157 9.40832 8.79481 9.40832H8.6353L9.10658 11.5956L10.1313 8.92008L10.4213 8.15843C10.8588 7.9314 11.2551 7.63602 11.6007 7.28693C11.7796 7.10628 11.9463 6.91099 12.0938 6.70105L15.8664 8.90055C16.3715 9.19349 16.635 9.75008 16.5842 10.2993L16.0211 15.8652C15.9462 16.666 15.2429 17.2543 14.4502 17.1786C13.6575 17.1029 13.075 16.3925 13.1499 15.5918L13.6236 10.9536L12.2678 10.1675ZM7.12479 5.80513C6.98703 5.87837 6.81543 5.8271 6.74293 5.68796C6.67043 5.54881 6.72118 5.37548 6.85894 5.30225C7.23113 5.10207 7.74108 4.9971 8.23894 4.98245C8.76098 4.96781 9.28301 5.05081 9.63103 5.22413C9.77121 5.29248 9.82921 5.46337 9.76154 5.60496C9.69387 5.74654 9.52469 5.80513 9.38452 5.73678C9.11625 5.60496 8.69331 5.54148 8.25586 5.55369C7.83533 5.5659 7.41722 5.6489 7.12479 5.80513Z" fill="#414E5E"/>
<path fill-rule="evenodd" clip-rule="evenodd" d="M32.6578 0C34.7943 0 36.5247 1.74789 36.5247 3.90589C36.5247 6.0639 34.7943 7.81178 32.6578 7.81178C30.5213 7.81178 28.7909 6.0639 28.7909 3.90589C28.7909 1.74789 30.5213 0 32.6578 0ZM36.677 10.1675V17.0492C37.1942 18.2112 38.2165 18.7556 38.9995 18.9851L36.6069 21.0235V28.0638C36.6069 30.6442 33.175 30.6466 33.175 28.0638V19.6125H32.143V28.0614C32.143 30.6417 28.7111 30.6442 28.7111 28.0614V20.9893L26.3644 18.9851C27.2199 18.6116 28.1722 18.0989 28.641 17.1493V10.3238L27.3601 11.1269L27.684 15.421C27.7444 16.2241 27.145 16.9247 26.3499 16.9858C25.5548 17.0468 24.8611 16.4414 24.8007 15.6382L24.4092 10.4629H24.414C24.3753 9.93806 24.6219 9.41076 25.0956 9.11538L28.8561 6.76208C28.9939 6.95005 29.1461 7.12581 29.3081 7.28937C29.6513 7.63602 30.05 7.9314 30.4875 8.16087L30.7848 8.98111L31.7346 11.5956L32.2058 9.40832H32.114C31.9472 9.40832 31.8119 9.27161 31.8119 9.10317V8.60761C31.8119 7.9314 33.5061 7.80934 33.5061 8.60761V9.10317C33.5061 9.27161 33.3708 9.40832 33.204 9.40832H33.0445L33.5158 11.5956L34.5405 8.92008L34.8305 8.15843C35.268 7.9314 35.6643 7.63602 36.0099 7.28693C36.1888 7.10628 36.3555 6.91099 36.503 6.70105L40.2756 8.90055C40.7807 9.19349 41.0442 9.75008 40.9934 10.2993L40.4303 15.8652C40.3554 16.666 39.6521 17.2543 38.8594 17.1786C38.0666 17.1029 37.4842 16.3925 37.5591 15.5918L38.0328 10.9536L36.677 10.1675ZM31.534 5.80513C31.3962 5.87837 31.2246 5.8271 31.1521 5.68796C31.0796 5.54881 31.1304 5.37548 31.2681 5.30225C31.6403 5.10207 32.1503 4.9971 32.6481 4.98245C33.1702 4.96781 33.6922 5.05081 34.0402 5.22413C34.1804 5.29248 34.2384 5.46337 34.1707 5.60496C34.103 5.74654 33.9339 5.80513 33.7937 5.73678C33.5254 5.60496 33.1025 5.54148 32.665 5.55369C32.2445 5.5659 31.8264 5.6489 31.534 5.80513Z" fill="#414E5E"/>
<path fill-rule="evenodd" clip-rule="evenodd" d="M20.3132 6.59119C21.7562 6.59119 22.9249 7.7717 22.9249 9.2292C22.9249 10.6867 21.7562 11.8672 20.3132 11.8672C18.8703 11.8672 17.7016 10.6867 17.7016 9.2292C17.7016 7.7717 18.8703 6.59119 20.3132 6.59119ZM23.0278 13.4583V18.1061C23.3771 18.8909 24.0676 19.2586 24.5964 19.4136L22.9804 20.7903V25.5453C22.9804 27.2881 20.6626 27.2897 20.6626 25.5453V19.8373H19.9656V25.5437C19.9656 27.2864 17.6477 27.2881 17.6477 25.5437V20.7672L16.0627 19.4136C16.6406 19.1613 17.2837 18.8151 17.6004 18.1737V13.5638L16.7352 14.1062L16.954 17.0064C16.9948 17.5488 16.59 18.022 16.0529 18.0633C15.5159 18.1045 15.0474 17.6956 15.0066 17.1531L14.7422 13.6578H14.7455C14.7193 13.3033 14.8858 12.9472 15.2058 12.7477L17.7456 11.1583C17.8387 11.2852 17.9415 11.4039 18.0509 11.5144C18.2827 11.7485 18.552 11.948 18.8474 12.103L19.0482 12.657L19.6897 14.4228L20.008 12.9455H19.946C19.8333 12.9455 19.7419 12.8532 19.7419 12.7394V12.4047C19.7419 11.948 20.8862 11.8656 20.8862 12.4047V12.7394C20.8862 12.8532 20.7948 12.9455 20.6821 12.9455H20.5744L20.8927 14.4228L21.5848 12.6158L21.7807 12.1013C22.0761 11.948 22.3438 11.7485 22.5773 11.5127C22.698 11.3907 22.8107 11.2588 22.9102 11.117L25.4583 12.6026C25.7994 12.8004 25.9774 13.1763 25.9431 13.5473L25.5627 17.3065C25.5121 17.8473 25.0371 18.2446 24.5017 18.1935C23.9663 18.1424 23.573 17.6626 23.6236 17.1218L23.9435 13.9892L23.0278 13.4583ZM19.5542 10.5119C19.4612 10.5614 19.3453 10.5268 19.2963 10.4328C19.2474 10.3388 19.2816 10.2218 19.3747 10.1723C19.626 10.0371 19.9705 9.9662 20.3067 9.95631C20.6593 9.94641 21.0119 10.0025 21.2469 10.1195C21.3416 10.1657 21.3808 10.2811 21.3351 10.3767C21.2894 10.4724 21.1751 10.5119 21.0804 10.4658C20.8992 10.3767 20.6136 10.3339 20.3181 10.3421C20.0341 10.3504 19.7517 10.4064 19.5542 10.5119Z" fill="#414E5E"/>
</svg>
