<svg width="41" height="36" viewBox="0 0 41 36" fill="none" xmlns="http://www.w3.org/2000/svg">
<path fill-rule="evenodd" clip-rule="evenodd" d="M6.46965 21.6344V34.9274C6.4679 35.0885 6.4029 35.2424 6.28867 35.356C6.17445 35.4697 6.02015 35.5338 5.85905 35.5347H0.610596C0.449232 35.5347 0.294428 35.4708 0.180015 35.357C0.0656013 35.2432 0.000881768 35.0888 0 34.9274L0 21.6344H6.46965ZM0 17.2935L13.8769 5.15169C16.9499 8.15462 19.9294 11.8015 22.9691 14.8044L34.0566 3.67025L30.4864 0.0934245L41 0V10.6037L37.5733 7.177C35.1143 9.66943 29.2986 15.1581 26.8395 17.6205C23.7265 20.7302 22.2417 20.7869 19.132 17.6772L13.8769 11.8315L7.71753 17.2935H0ZM38.1606 12.9093V34.9307C38.1588 35.0913 38.0943 35.2447 37.9808 35.3582C37.8673 35.4717 37.7138 35.5363 37.5533 35.538H32.3015C32.141 35.5354 31.9879 35.47 31.875 35.3559C31.7621 35.2417 31.6984 35.0879 31.6976 34.9274V19.1153C32.6986 18.1444 33.8664 17.0166 35.0575 15.8688L37.5433 13.4765C37.7412 13.2767 37.9495 13.0873 38.1672 12.9093H38.1606ZM27.5969 22.8022V34.9274C27.5952 35.0885 27.5302 35.2424 27.416 35.356C27.3017 35.4697 27.1474 35.5338 26.9863 35.5347H21.7379C21.5768 35.5338 21.4225 35.4697 21.3083 35.356C21.194 35.2424 21.129 35.0885 21.1273 34.9274V24.0968C21.7529 24.2487 22.3955 24.3193 23.0391 24.307C24.6765 24.2833 26.2673 23.7581 27.5969 22.8022ZM17.0333 21.8013V34.9107C17.0315 35.0718 16.9665 35.2258 16.8523 35.3394C16.7381 35.453 16.5838 35.5171 16.4227 35.518H11.1709C11.0101 35.5171 10.8562 35.4529 10.7425 35.3392C10.6288 35.2255 10.5645 35.0715 10.5636 34.9107V20.6868C10.6704 20.6068 10.7738 20.5234 10.8739 20.4366L13.4965 18.101L15.6119 20.4366L15.7754 20.6068C16.2025 21.0361 16.6218 21.4276 17.0333 21.7812V21.8013Z" fill="#414E5E"/>
</svg>
