<svg width="13" height="13" viewBox="0 0 13 13" fill="none" xmlns="http://www.w3.org/2000/svg">
<path d="M12.9609 12.0656L8.74084 7.84547C9.39571 6.99884 9.74996 5.96372 9.74996 4.87498C9.74996 3.57173 9.24133 2.34974 8.32159 1.42837C7.40184 0.506998 6.1766 0 4.87498 0C3.57336 0 2.34811 0.508623 1.42837 1.42837C0.506998 2.34811 0 3.57173 0 4.87498C0 6.1766 0.508623 7.40184 1.42837 8.32159C2.34811 9.24296 3.57173 9.74996 4.87498 9.74996C5.96372 9.74996 6.99722 9.39571 7.84384 8.74246L12.0639 12.9609C12.0763 12.9733 12.091 12.9831 12.1072 12.9898C12.1234 12.9965 12.1407 13 12.1582 13C12.1757 13 12.193 12.9965 12.2092 12.9898C12.2254 12.9831 12.2401 12.9733 12.2524 12.9609L12.9609 12.2541C12.9733 12.2417 12.9831 12.227 12.9898 12.2108C12.9965 12.1947 13 12.1773 13 12.1598C13 12.1423 12.9965 12.125 12.9898 12.1088C12.9831 12.0926 12.9733 12.0779 12.9609 12.0656ZM7.44897 7.44897C6.75997 8.13634 5.84672 8.51496 4.87498 8.51496C3.90323 8.51496 2.98999 8.13634 2.30099 7.44897C1.61362 6.75997 1.23499 5.84672 1.23499 4.87498C1.23499 3.90323 1.61362 2.98836 2.30099 2.30099C2.98999 1.61362 3.90323 1.23499 4.87498 1.23499C5.84672 1.23499 6.7616 1.61199 7.44897 2.30099C8.13634 2.98999 8.51496 3.90323 8.51496 4.87498C8.51496 5.84672 8.13634 6.7616 7.44897 7.44897Z" fill="#666666"/>
</svg>
