<svg width="10" height="12" viewBox="0 0 10 12" fill="none" xmlns="http://www.w3.org/2000/svg">
<path d="M3 5.14275C3 4.6881 3.21071 4.25206 3.58579 3.93057C3.96086 3.60908 4.46957 3.42847 5 3.42847C5.53043 3.42847 6.03914 3.60908 6.41421 3.93057C6.78929 4.25206 7 4.6881 7 5.14275C7 5.59741 6.78929 6.03344 6.41421 6.35494C6.03914 6.67643 5.53043 6.85704 5 6.85704C4.46957 6.85704 3.96086 6.67643 3.58579 6.35494C3.21071 6.03344 3 5.59741 3 5.14275ZM5 4.28561C4.73478 4.28561 4.48043 4.37592 4.29289 4.53666C4.10536 4.69741 4 4.91542 4 5.14275C4 5.37008 4.10536 5.5881 4.29289 5.74884C4.48043 5.90959 4.73478 5.9999 5 5.9999C5.26522 5.9999 5.51957 5.90959 5.70711 5.74884C5.89464 5.5881 6 5.37008 6 5.14275C6 4.91542 5.89464 4.69741 5.70711 4.53666C5.51957 4.37592 5.26522 4.28561 5 4.28561Z" fill="#666666"/>
<path d="M2.69488 7.71411C2.36388 7.71411 2.00488 7.91811 1.97488 8.27725C1.95188 8.54725 1.97988 9.06754 2.43488 9.52268C2.89588 9.98554 3.70388 10.2855 4.99988 10.2855C6.29588 10.2855 7.10388 9.98554 7.56588 9.52268C8.01988 9.06754 8.04788 8.54725 8.02588 8.27725C7.99588 7.91725 7.63588 7.71411 7.30488 7.71411H2.69488ZM3.19388 8.96554C3.08283 8.85321 3.01015 8.71676 2.98388 8.57125H7.01588C6.98956 8.71675 6.91689 8.85319 6.80588 8.96554C6.60188 9.16868 6.12788 9.4284 4.99988 9.4284C3.87188 9.4284 3.39788 9.16868 3.19388 8.96554Z" fill="#666666"/>
<path d="M7.915 0.857021H8.5C8.89782 0.857021 9.27936 0.99248 9.56066 1.2336C9.84196 1.47472 10 1.80174 10 2.14274V10.7142C10 11.0552 9.84196 11.3822 9.56066 11.6233C9.27936 11.8644 8.89782 11.9999 8.5 11.9999H1.5C1.10218 11.9999 0.720644 11.8644 0.43934 11.6233C0.158035 11.3822 0 11.0552 0 10.7142V2.14274C0 1.80174 0.158035 1.47472 0.43934 1.2336C0.720644 0.99248 1.10218 0.857021 1.5 0.857021H2.085C2.18844 0.60624 2.38008 0.389131 2.63351 0.235616C2.88694 0.0821018 3.18967 -0.000261339 3.5 -0.000121894H6.5C6.81033 -0.000261339 7.11306 0.0821018 7.36649 0.235616C7.61992 0.389131 7.81156 0.60624 7.915 0.857021ZM2.085 1.71416H1.5C1.36739 1.71416 1.24021 1.75932 1.14645 1.83969C1.05268 1.92006 1 2.02907 1 2.14274V10.7142C1 10.8278 1.05268 10.9368 1.14645 11.0172C1.24021 11.0976 1.36739 11.1427 1.5 11.1427H8.5C8.63261 11.1427 8.75979 11.0976 8.85355 11.0172C8.94732 10.9368 9 10.8278 9 10.7142V2.14274C9 2.02907 8.94732 1.92006 8.85355 1.83969C8.75979 1.75932 8.63261 1.71416 8.5 1.71416H7.915C7.81156 1.96495 7.61992 2.18205 7.36649 2.33557C7.11306 2.48908 6.81033 2.57145 6.5 2.57131H3.5C3.18967 2.57145 2.88694 2.48908 2.63351 2.33557C2.38008 2.18205 2.18844 1.96495 2.085 1.71416ZM3 1.28559C3 1.39926 3.05268 1.50827 3.14645 1.58864C3.24021 1.66901 3.36739 1.71416 3.5 1.71416H6.5C6.63261 1.71416 6.75979 1.66901 6.85355 1.58864C6.94732 1.50827 7 1.39926 7 1.28559C7 1.17193 6.94732 1.06292 6.85355 0.982547C6.75979 0.902174 6.63261 0.857021 6.5 0.857021H3.5C3.36739 0.857021 3.24021 0.902174 3.14645 0.982547C3.05268 1.06292 3 1.17193 3 1.28559Z" fill="#666666"/>
</svg>
