<svg width="21" height="19" viewBox="0 0 21 19" fill="none" xmlns="http://www.w3.org/2000/svg">
<path fill-rule="evenodd" clip-rule="evenodd" d="M3.00626 0.955299L20.5795 10.705C20.6887 10.7529 20.7811 10.8327 20.8444 10.9338C20.9078 11.035 20.9391 11.1529 20.9343 11.2721C20.9296 11.3912 20.8889 11.506 20.8177 11.6015C20.7465 11.6969 20.6481 11.7686 20.5354 11.807L1.50762 18.4011C1.39831 18.4391 1.28014 18.4443 1.16779 18.4157C1.05544 18.3872 0.95384 18.3264 0.875611 18.2407C0.797382 18.155 0.74597 18.0483 0.727752 17.9338C0.709535 17.8193 0.725315 17.7021 0.773135 17.5966L3.48638 11.5434L13.4568 10.6728L3.80966 8.06004L2.14765 1.61825C2.11893 1.50628 2.12357 1.38843 2.16102 1.27924C2.19847 1.17005 2.26707 1.0743 2.35838 1.00381C2.44968 0.93331 2.55968 0.891151 2.67481 0.882531C2.78994 0.873911 2.90516 0.899208 3.00626 0.955299Z" fill="#8CD018"/>
</svg>
