<svg width="16" height="16" viewBox="0 0 16 16" fill="none" xmlns="http://www.w3.org/2000/svg">
<path d="M1 16C0.71667 16 0.479003 15.8903 0.287003 15.6709C0.0950036 15.4514 -0.000663206 15.1802 3.4602e-06 14.8571C3.4602e-06 14.5333 0.0960035 14.2617 0.288003 14.0423C0.480003 13.8229 0.717336 13.7135 1 13.7143H9C9.28333 13.7143 9.521 13.824 9.713 14.0434C9.905 14.2629 10.0007 14.5341 10 14.8571C10 15.1809 9.904 15.4526 9.712 15.672C9.52 15.8914 9.28267 16.0008 9 16H1ZM1 6.85714C0.71667 6.85714 0.479003 6.74743 0.287003 6.528C0.0950036 6.30857 -0.000663206 6.03733 3.4602e-06 5.71429C3.4602e-06 5.39048 0.0960035 5.11886 0.288003 4.89943C0.480003 4.68 0.717336 4.57067 1 4.57143H15C15.2833 4.57143 15.521 4.68114 15.713 4.90057C15.905 5.12 16.0007 5.39124 16 5.71429C16 6.0381 15.904 6.30972 15.712 6.52914C15.52 6.74857 15.2827 6.85791 15 6.85714H1ZM1 11.4286C0.71667 11.4286 0.479003 11.3189 0.287003 11.0994C0.0950036 10.88 -0.000663206 10.6088 3.4602e-06 10.2857C3.4602e-06 9.9619 0.0960035 9.69028 0.288003 9.47086C0.480003 9.25143 0.717336 9.1421 1 9.14286H15C15.2833 9.14286 15.521 9.25257 15.713 9.472C15.905 9.69143 16.0007 9.96267 16 10.2857C16 10.6095 15.904 10.8811 15.712 11.1006C15.52 11.32 15.2827 11.4293 15 11.4286H1ZM1 2.28572C0.71667 2.28572 0.479003 2.176 0.287003 1.95657C0.0950036 1.73715 -0.000663206 1.46591 3.4602e-06 1.14286C3.4602e-06 0.819051 0.0960035 0.547432 0.288003 0.328004C0.480003 0.108576 0.717336 -0.00075795 1 3.95451e-06H15C15.2833 3.95451e-06 15.521 0.109718 15.713 0.329147C15.905 0.548575 16.0007 0.819813 16 1.14286C16 1.46667 15.904 1.73829 15.712 1.95772C15.52 2.17715 15.2827 2.28648 15 2.28572H1Z" fill="#808893"/>
</svg>
