<svg width="8" height="16" viewBox="0 0 8 16" fill="none" xmlns="http://www.w3.org/2000/svg">
<path d="M5.08844 16.0001H2.57865C2.24583 16.0001 1.92664 15.8838 1.6913 15.6769C1.45596 15.4699 1.32375 15.1893 1.32375 14.8966V11.0345C0.990927 11.0345 0.671738 10.9183 0.436399 10.7114C0.20106 10.5044 0.0688477 10.2237 0.0688477 9.9311V6.62075C0.0688477 6.18177 0.267166 5.76077 0.620174 5.45036C0.973183 5.13996 1.45197 4.96558 1.9512 4.96558H5.71589C6.21512 4.96558 6.6939 5.13996 7.04691 5.45036C7.39992 5.76077 7.59824 6.18177 7.59824 6.62075V9.9311C7.59824 10.2237 7.46603 10.5044 7.23069 10.7114C6.99535 10.9183 6.67616 11.0345 6.34334 11.0345V14.8966C6.34334 15.1893 6.21113 15.4699 5.97579 15.6769C5.74045 15.8838 5.42126 16.0001 5.08844 16.0001ZM1.9512 6.06902C1.86736 6.06415 1.78331 6.07508 1.70467 6.10108C1.62603 6.12708 1.55462 6.16756 1.49521 6.21979C1.4358 6.27203 1.38977 6.33483 1.3602 6.40398C1.33063 6.47313 1.3182 6.54703 1.32375 6.62075V9.9311H2.57865V14.8966H5.08844V9.9311H6.34334V6.62075C6.34889 6.54703 6.33646 6.47313 6.30689 6.40398C6.27732 6.33483 6.23129 6.27203 6.17188 6.21979C6.11247 6.16756 6.04106 6.12708 5.96241 6.10108C5.88377 6.07508 5.79973 6.06415 5.71589 6.06902H1.9512Z" fill="#7E7E7E"/>
<path d="M3.83353 4.4138C3.33714 4.4138 2.85189 4.28436 2.43916 4.04187C2.02643 3.79937 1.70474 3.4547 1.51478 3.05144C1.32482 2.64818 1.27512 2.20445 1.37196 1.77635C1.4688 1.34826 1.70783 0.955026 2.05883 0.646386C2.40984 0.337746 2.85704 0.12756 3.34389 0.0424059C3.83074 -0.0427477 4.33538 0.000956207 4.79399 0.167991C5.25259 0.335026 5.64457 0.617889 5.92035 0.980812C6.19613 1.34373 6.34333 1.77042 6.34333 2.2069C6.34333 2.7922 6.0789 3.35354 5.60822 3.76741C5.13755 4.18128 4.49917 4.4138 3.83353 4.4138ZM3.83353 1.10345C3.58533 1.10345 3.34271 1.16817 3.13634 1.28941C2.92998 1.41066 2.76913 1.583 2.67415 1.78463C2.57917 1.98626 2.55432 2.20812 2.60274 2.42217C2.65116 2.63622 2.77068 2.83283 2.94618 2.98715C3.12168 3.14147 3.34528 3.24657 3.58871 3.28914C3.83214 3.33172 4.08446 3.30987 4.31376 3.22635C4.54306 3.14283 4.73905 3.0014 4.87694 2.81994C5.01483 2.63848 5.08843 2.42514 5.08843 2.2069C5.08843 1.91425 4.95622 1.63358 4.72088 1.42664C4.48554 1.21971 4.16635 1.10345 3.83353 1.10345Z" fill="#7E7E7E"/>
</svg>
