<svg width="24" height="24" viewBox="0 0 24 24" fill="none" xmlns="http://www.w3.org/2000/svg">
<g clip-path="url(#clip0_182_62)">
<path d="M20.9996 6.70539C20.3256 6.98986 19.6107 7.17658 18.8786 7.25936C19.6411 6.82395 20.2266 6.13447 20.5023 5.31296C19.7774 5.72276 18.9843 6.0115 18.1573 6.16669C17.4837 5.48297 16.524 5.05566 15.4617 5.05566C13.4223 5.05566 11.7687 6.6309 11.7687 8.57375C11.7687 8.84953 11.8014 9.11801 11.8644 9.37557C8.79521 9.2288 6.07412 7.8282 4.25267 5.69966C3.93486 6.21927 3.75275 6.82368 3.75275 7.46835C3.75275 8.68896 4.40476 9.76576 5.3956 10.3967C4.80916 10.3792 4.23562 10.2283 3.72287 9.9566C3.72266 9.97134 3.72266 9.98607 3.72266 10.0009C3.72266 11.7055 4.99559 13.1274 6.68492 13.4506C6.14112 13.5915 5.5707 13.6122 5.01725 13.5109C5.48715 14.9086 6.851 15.9258 8.46692 15.9542C7.20306 16.8978 5.61069 17.4603 3.88058 17.4603C3.58245 17.4603 3.28855 17.4436 2.99963 17.4111C4.63391 18.4093 6.57502 18.9918 8.66049 18.9918C15.4532 18.9918 19.1676 13.6308 19.1676 8.98176C19.1676 8.82916 19.1641 8.67744 19.1569 8.52659C19.8799 8.02868 20.5039 7.41196 20.9996 6.70539Z" fill="#414E5E"/>
</g>
<defs>
<clipPath id="clip0_182_62">
<rect width="18" height="14" fill="white" transform="translate(2.99963 5)"/>
</clipPath>
</defs>
</svg>
